<svg height="100" viewBox="0 0 150 100" width="150" xmlns="http://www.w3.org/2000/svg" xmlns:xlink="http://www.w3.org/1999/xlink"><defs><circle id="a" cx="10.5" cy="10.5" r="10.5"/><mask id="b" fill="#fff"><use fill="#fff" fill-rule="evenodd" xlink:href="#a"/></mask></defs><g fill="none" fill-rule="evenodd"><g transform="translate(24 35)"><path d="m34 9h59v4h-59z" fill="#ff6b6b"/><g stroke="#ff6b6b"><path d="m34.6944444 16.5h48.6111112" stroke-linecap="square"/><path d="m34.7 20.5h33.6" stroke-linecap="square"/><path d="m-1-1h105v32h-105z" stroke-width="2"/></g></g><g transform="translate(31 39)"><use fill="#ff6b6b" xlink:href="#a"/><g fill="#fff" fill-rule="nonzero" mask="url(#b)"><path d="m7.5 7.5c-1.6545 0-3-1.3455-3-3s1.3455-3 3-3 3 1.3455 3 3-1.3455 3-3 3m2.8185.50475c1.0245-.82425 1.6815-2.08725 1.6815-3.50475 0-2.4855-2.0145-4.5-4.5-4.5s-4.5 2.0145-4.5 4.5c0 1.4175.657 2.6805 1.6815 3.50475-2.74425 1.03125-4.6815 3.579-4.6815 6.99525h1.5c0-3.75 2.69175-6 6-6s6 2.25 6 6h1.5c0-3.41625-1.93725-5.964-4.6815-6.99525" transform="translate(3 5)"/></g></g></g></svg>