<svg height="100" viewBox="0 0 150 100" width="150" xmlns="http://www.w3.org/2000/svg"><g fill="none" fill-rule="evenodd"><path d="m82.5 21.5h45v27h-45z" stroke="#ff6b6b" stroke-linecap="square"/><path d="m82.5 55.5h45v27h-45z" stroke="#ff6b6b" stroke-linecap="square"/><path d="m88 25h32v4h-32z" fill="#ff6b6b"/><path d="m88 59h32v4h-32z" fill="#ff6b6b"/><g stroke="#ff6b6b" stroke-linecap="square"><path d="m88.375 33h26.25"/><path d="m88.375 67h26.25"/><path d="m88.38 37h18.24"/><path d="m88.38 71h18.24"/><path d="m88.3709677 41h22.2580643"/><path d="m88.3709677 75h22.2580643"/><path d="m22.5 33.5h45v27h-45z"/></g><path d="m28 39h32v4h-32z" fill="#ff6b6b"/><path d="m28.375 47h26.25" stroke="#ff6b6b" stroke-linecap="square"/><path d="m28.38 51h18.24" stroke="#ff6b6b" stroke-linecap="square"/><path d="m28.3709677 55h22.2580646" stroke="#ff6b6b" stroke-linecap="square"/><path d="m74.5 26.5v56" stroke="#ff6b6b" stroke-linecap="square"/><g fill="#ff6b6b" stroke="#fff"><circle cx="74.5" cy="22.5" r="4.5"/><circle cx="74.5" cy="43.5" r="4.5"/><circle cx="74.5" cy="59.5" r="4.5"/></g></g></svg>