<svg height="100" viewBox="0 0 150 100" width="150" xmlns="http://www.w3.org/2000/svg"><g fill="none" fill-rule="evenodd"><path d="m41 51h66v5h-66z" fill="#ff6b6b"/><g stroke="#ff6b6b" stroke-linecap="square" transform="translate(41 60)"><path d="m.80555556 1.5h56.38888884"/><path d="m.8 6.5h38.4"/><path d="m.80645161 11.5h48.38709679"/></g><path d="m33 22h85v57h-85z" stroke="#ff6b6b" stroke-width="2"/><g transform="translate(65 28)"><path d="m7.39339432 2.72752088 3.76295738 6.81372927c.0463045.08384537.1463146.10574817.2205442.05101171l3.1920832-2.35382527c.1494118-.11017549.3483757-.07173955.4481485.09200327l5.8013413 7.09783924c.0980939.1609874.027169.2914936-.1460334.2914936h-20.40183604c-.17922295 0-.25709197-.136308-.1724601-.3074146l6.97582983-11.68049186c.08397586-.16978043.22865572-.16870492.31942513-.00434536zm10.61737128 1.25324835c.9572494 0 1.7332535-.81363634 1.7332535-1.81730769 0-1.00367137-.7760041-1.81730769-1.7332535-1.81730769-.9572495 0-1.7332536.81363632-1.7332536 1.81730769 0 1.00367135.7760041 1.81730769 1.7332536 1.81730769z" fill="#ff6b6b"/><path d="m7.39339432 2.72752088 3.76295738 6.81372927c.0463045.08384537.1463146.10574817.2205442.05101171l3.1920832-2.35382527c.1494118-.11017549.3483757-.07173955.4481485.09200327l5.8013413 7.09783924c.0980939.1609874.027169.2914936-.1460334.2914936h-20.40183604c-.17922295 0-.25709197-.136308-.1724601-.3074146l6.97582983-11.68049186c.08397586-.16978043.22865572-.16870492.31942513-.00434536zm10.61737128 1.25324835c.9572494 0 1.7332535-.81363634 1.7332535-1.81730769 0-1.00367137-.7760041-1.81730769-1.7332535-1.81730769-.9572495 0-1.7332536.81363632-1.7332536 1.81730769 0 1.00367135.7760041 1.81730769 1.7332536 1.81730769z"/></g></g></svg>