<svg height="100" viewBox="0 0 150 100" width="150" xmlns="http://www.w3.org/2000/svg"><g fill="none" fill-rule="evenodd"><g transform="translate(50 18)"><path d="m-1-1h52v68h-52z" stroke="#ff6b6b" stroke-width="2"/><path d="m4.166667 39.265823h40.833333v5.012658h-40.833333z" fill="#ff6b6b"/><path d="m5.25543213 5.01265823c-.14107127 0-.25543213.10285422-.25543213.22864494v27.94777343c0 .1262772.11474609.2286449.25543213.2286449h39.48913587c.1410711 0 .255432-.1028542.255432-.2286449v-27.94777343c0-.12627711-.1147462-.22864494-.255432-.22864494z" fill="#fff"/><path d="m19.8449062 11.7997576 5.9100447 10.0308731c.0727251.1234335.2297995.1556778.3463834.0750972l5.0134382-3.4651982c.2346639-.1621955.5471538-.1056118.7038554.1354432l9.1115001 10.4491273c.1540647.2369986.0426712.4291241-.2293579.4291241h-32.04281923c-.28148489 0-.40378481-.2006667-.27086325-.4525624l10.95613418-17.1955072c.1318913-.2499433.3591233-.24836.5016844-.0063971z" fill="#ff6b6b"/><path d="m37.6666667 13.6002355c1.4727593 0 2.6666666-1.183012 2.6666666-2.6423315 0-1.4593194-1.1939073-2.64233144-2.6666666-2.64233144s-2.6666667 1.18301204-2.6666667 2.64233144c0 1.4593195 1.1939074 2.6423315 2.6666667 2.6423315z" fill="#ff6b6b"/><g stroke="#ff6b6b" stroke-linecap="square"><path d="m12.0833333 48.8734177h25.0138851"/><path d="m16.25 53.0506329h18.3333333"/></g></g><rect fill="#fff" height="3" rx="1.5" width="35" x="57" y="73"/></g></svg>