<svg height="100" viewBox="0 0 150 100" width="150" xmlns="http://www.w3.org/2000/svg"><g fill="none" fill-rule="evenodd"><g transform="translate(27 19)"><path d="m84 43h-74v8h-11v-52h98v52h-13z" stroke="#ff6b6b" stroke-width="2"/><path d="m15.138855 5.45504176 7.7051033 13.62745854c.0948138.1676907.2995964.2114963.4515904.1020234l6.5361704-4.7076505c.3059384-.220351.7133408-.1434791.9176375.1840065l11.8789369 14.1956785c.2008588.3219749.0556317.5829873-.2990208.5829873h-41.7751881c-.36698032 0-.52642641-.2726161-.35313257-.6148294l14.28384207-23.36098361c.1719505-.33956087.4681998-.33740985.6540609-.00869073zm21.7403316 2.5064967c1.9600823 0 3.5490431-1.62727267 3.5490431-3.63461538 0-2.00734274-1.5889608-3.63461539-3.5490431-3.63461539s-3.5490431 1.62727265-3.5490431 3.63461539c0 2.00734271 1.5889608 3.63461538 3.5490431 3.63461538z" fill="#ff6b6b" transform="translate(26 6)"/></g><path d="m40.5 65.5h22v17h-22z" stroke="#ff6b6b"/><g transform="translate(43.1 68.133333)"><path d="m.10728149 0c-.05924993 0-.10728149.04377365-.10728149.09730882v11.89427128c0 .0537422.04819336.0973088.10728149.0973088h16.58543711c.0592498 0 .1072814-.0437737.1072814-.0973088v-11.89427128c0-.05374217-.0481934-.09730882-.1072814-.09730882z" fill="#fff"/><g fill="#ff6b6b"><path d="m6.2348606 2.88851638 2.48221878 4.26903151c.03054453.05253195.09651577.0662548.14548101.03196056l2.10564411-1.47475103c.0985588-.06902867.2298045-.04494725.2956192.05764315l3.8268301 4.44703603c.0647071.100864.0179219.1826306-.0963304.1826306h-13.45798403c-.11822366 0-.16958962-.0854016-.11376257-.1926057l4.60157638-7.31822261c.05539431-.10637317.15083176-.10569933.21070742-.00272251z"/><path d="m13.72 3.65478036c.6185589 0 1.12-.50347718 1.12-1.1245478 0-.62107063-.5014411-1.12454781-1.12-1.12454781s-1.12.50347718-1.12 1.12454781c0 .62107062.5014411 1.1245478 1.12 1.1245478z"/></g></g><path d="m67 66h38v5h-38z" fill="#ff6b6b"/><g stroke="#ff6b6b"><path d="m67.5 74.5h27.0185122" stroke-linecap="square"/><path d="m67.5 78.5h18.0277564" stroke-linecap="square"/><path d="m35 39-3 2.5 3 2.5"/><path d="m118 39-3 2.5 3 2.5" transform="matrix(-1 0 0 1 233 0)"/></g></g></svg>