<svg height="100" viewBox="0 0 150 100" width="150" xmlns="http://www.w3.org/2000/svg"><g fill="none" fill-rule="evenodd" transform="translate(27 25)"><path d="m-1-1h98v52h-98z" stroke="#ff6b6b" stroke-width="2"/><path d="m42.0079841 15.7627341 7.7051032 13.6274585c.0948139.1676907.2995965.2114963.4515904.1020234l6.5361704-4.7076505c.3059384-.220351.7133409-.1434791.9176375.1840065l11.878937 14.1956786c.2008588.3219748.0556317.5829872-.2990209.5829872h-41.775188c-.3669804 0-.5264265-.272616-.3531326-.6148294l14.283842-23.3609836c.1719506-.3395609.4681998-.3374099.654061-.0086907zm21.7403316 2.5064967c1.9600823 0 3.549043-1.6272727 3.549043-3.6346154s-1.5889607-3.6346154-3.549043-3.6346154-3.5490431 1.6272727-3.5490431 3.6346154 1.5889608 3.6346154 3.5490431 3.6346154z" fill="#ff6b6b" opacity=".12"/><path d="m7 35h43v5h-43z" fill="#ff6b6b"/><path d="m7.5 43.5h24" stroke="#ff6b6b" stroke-linecap="square"/><circle cx="12" cy="12" fill="#ff6b6b" r="6"/></g></svg>