<svg height="100" viewBox="0 0 150 100" width="150" xmlns="http://www.w3.org/2000/svg"><g fill="none" fill-rule="evenodd"><g transform="translate(24 45)"><path d="m-.5-.5h49v26h-49z" stroke="#ff6b6b"/><path d="m21.003992 7.88136703 3.8525517 6.81372927c.0474069.0838454.1497982.1057482.2257952.0510117l3.2680852-2.3538253c.1529692-.1101754.3566704-.0717395.4588187.0920033l5.9394685 7.0978393c.1004294.1609874.0278159.2914936-.1495104.2914936h-20.8875941c-.1834901 0-.2632132-.136308-.1765663-.3074147l7.1419211-11.6804918c.0859752-.16978043.2340999-.16870493.3270304-.00434537zm10.8701658 1.25324835c.9800412 0 1.7745216-.81363633 1.7745216-1.81730769s-.7944804-1.81730769-1.7745216-1.81730769c-.9800411 0-1.7745215.81363633-1.7745215 1.81730769s.7944804 1.81730769 1.7745215 1.81730769z" fill="#ff6b6b" opacity=".12"/><path d="m3.5 17.5h21.5v2.5h-21.5z" fill="#ff6b6b"/><path d="m3.75 21.75h12" stroke="#ff6b6b" stroke-linecap="square" stroke-width=".5"/><circle cx="6" cy="6" fill="#ff6b6b" r="3"/></g><g fill="#ff6b6b"><rect height="5" rx="2.5" width="19" x="43" y="31"/><rect height="5" opacity=".2" rx="2.5" width="19" x="66" y="31"/><rect height="5" opacity=".2" rx="2.5" width="19" x="88" y="31"/></g><g transform="translate(78 45)"><path d="m-.5-.5h49v26h-49z" stroke="#ff6b6b"/><path d="m21.003992 7.88136703 3.8525517 6.81372927c.0474069.0838454.1497982.1057482.2257952.0510117l3.2680852-2.3538253c.1529692-.1101754.3566704-.0717395.4588187.0920033l5.9394685 7.0978393c.1004294.1609874.0278159.2914936-.1495104.2914936h-20.8875941c-.1834901 0-.2632132-.136308-.1765663-.3074147l7.1419211-11.6804918c.0859752-.16978043.2340999-.16870493.3270304-.00434537zm10.8701658 1.25324835c.9800412 0 1.7745216-.81363633 1.7745216-1.81730769s-.7944804-1.81730769-1.7745216-1.81730769c-.9800411 0-1.7745215.81363633-1.7745215 1.81730769s.7944804 1.81730769 1.7745215 1.81730769z" fill="#ff6b6b" opacity=".12"/><path d="m3.5 17.5h21.5v2.5h-21.5z" fill="#ff6b6b"/><path d="m3.75 21.75h12" stroke="#ff6b6b" stroke-linecap="square" stroke-width=".5"/><circle cx="6" cy="6" fill="#ff6b6b" r="3"/></g></g></svg>