<svg height="100" viewBox="0 0 150 100" width="150" xmlns="http://www.w3.org/2000/svg"><g fill="#ff6b6b" fill-rule="evenodd"><path d="m42.9865 70h5.187v-1.534h-3.315v-7.748h-1.872zm7.527-3.497c0 .3553351.0086666.6846652.026.988s.0584997.5633323.1235.78.1624993.3856661.2925.507c.1300006.1213339.3033322.182.52.182.3640018 0 .6153326-.1906648.754-.572s.208-1.0096623.208-1.885-.0693326-1.5036648-.208-1.885-.3899982-.572-.754-.572c-.2166678 0-.3899994.0606661-.52.182-.1300007.1213339-.2274997.2903323-.2925.507s-.1061666.4766652-.1235.78-.026.6326649-.026.988zm-1.794 0c0-.598003.0476662-1.1266644.143-1.586s.2513322-.8428318.468-1.1505c.2166677-.3076682.5004982-.5416659.8515-.702s.7821641-.2405 1.2935-.2405c.537336-.0086667.9836649.0628326 1.339.2145s.636999.3834984.845.6955.3553329.6976644.442 1.157.13.9966636.13 1.612c0 .598003-.0476662 1.1266644-.143 1.586s-.2513323.8428318-.468 1.1505c-.2166678.3076682-.5004982.5351659-.8515.6825s-.7821641.221-1.2935.221c-.537336.0086667-.9836649-.0584993-1.339-.2015s-.636999-.3683318-.845-.676-.3553329-.693331-.442-1.157-.13-.9988303-.13-1.6055zm6.474-3.497v6.994h1.794v-4.199c0-.2340012.0389996-.4311659.117-.5915s.1819993-.2903328.312-.39c.1300006-.0996672.2729992-.1711664.429-.2145.1560008-.0433335.3119992-.065.468-.065.0953338 0 .1884995.0021666.2795.0065s.1841662.0108333.2795.0195v-1.716c-.0520003-.0086667-.1061664-.0151666-.1625-.0195s-.1104997-.0065-.1625-.0065c-.3726685 0-.6889987.1018323-.949.3055s-.4809991.4744983-.663.8125h-.026v-.936zm7.696 2.704c-.0086667-.268668-.0259999-.5048323-.052-.7085s-.0714997-.3769993-.1365-.52-.1559994-.251333-.273-.325-.2664991-.1105-.4485-.1105-.3314994.0411663-.4485.1235-.2101663.190666-.2795.325-.1191665.2838325-.1495.4485-.0455.3293325-.0455.494v.273zm-1.833 1.066v.559c0 .208001.0151665.409499.0455.6045s.0801663.3683326.1495.52.1603328.2729995.273.364.2513325.1365.416.1365c.3033348 0 .5243326-.1083322.663-.325s.2339997-.5459978.286-.988h1.612c-.0346668.8146707-.2513313 1.4343312-.65 1.859s-1.0269957.637-1.885.637c-.6500033 0-1.1569982-.1083323-1.521-.325-.3640018-.2166678-.6326658-.5026649-.806-.858s-.2794998-.7539978-.3185-1.196-.0585-.8839978-.0585-1.326c0-.4680023.0324997-.9186645.0975-1.352s.194999-.8189983.39-1.157.4744982-.6066657.8385-.806.8493303-.299 1.456-.299c.5200026 0 .9468317.0844992 1.2805.2535s.5958324.4073318.7865.715.3206663.6803311.39 1.118.104.925164.104 1.4625v.403zm4.485-3.77v6.994h1.794v-4.602c0-.4160021.0844992-.7193324.2535-.91s.3964986-.286.6825-.286c.2513346 0 .4311661.0779992.5395.234s.1625.3813319.1625.676v4.888h1.794v-4.602c0-.4160021.0844992-.7193324.2535-.91s.3964986-.286.6825-.286c.2513346 0 .4311661.0779992.5395.234s.1625.3813319.1625.676v4.888h1.794v-5.083c0-.6760034-.1408319-1.1938315-.4225-1.5535s-.721497-.5395-1.3195-.5395c-.4246688 0-.7908318.0931657-1.0985.2795s-.5308326.4658315-.6695.8385h-.026c-.0953338-.3640018-.2838319-.6413324-.5655-.832s-.6304979-.286-1.0465-.286c-.390002 0-.7258319.0693326-1.0075.208s-.5351655.3683317-.7605.689h-.026v-.715zm13.039-2.392v1.534h1.794v-1.534zm0 2.392v6.994h1.794v-6.994zm3.055 0h1.716v.741h.026c.1993343-.329335.4224988-.5654993.6695-.7085s.5524982-.2145.9165-.2145c.7366703 0 1.2783316.2881638 1.625.8645s.52 1.5144935.52 2.8145-.1733316 2.2316639-.52 2.795-.8883297.845-1.625.845c-.3380017 0-.6261655-.0628327-.8645-.1885s-.4528324-.3271653-.6435-.6045h-.026v2.899h-1.794zm1.794 3.497c0 .7626705.0584994 1.3368314.1755 1.7225s.3748313.5785.7735.5785c.3900019 0 .6434994-.1928314.7605-.5785s.1755-.9598295.1755-1.7225-.0584994-1.3368314-.1755-1.7225-.3704981-.5785-.7605-.5785c-.3986687 0-.6564994.1928314-.7735.5785s-.1755.9598295-.1755 1.7225zm6.019 1.209h-1.612v.247c0 .3380017.0389996.6434986.117.9165s.214499.5048324.4095.6955.4593317.3336662.793.429.7518308.143 1.2545.143c.3813352 0 .7301651-.0389996 1.0465-.117s.5893322-.2079991.819-.39.4094993-.4094986.5395-.6825c.1300006-.2730014.195-.5958315.195-.9685 0-.5286693-.1169988-.9468318-.351-1.2545s-.6326639-.5568324-1.196-.7475l-1.079-.364c-.3033349-.0953338-.5091661-.2123326-.6175-.351s-.1625-.2946658-.1625-.468c0-.2513346.0844992-.4398327.2535-.5655s.3661655-.1885.5915-.1885c.2946681 0 .5004994.0844992.6175.2535s.1755.4354982.1755.7995h1.612v-.286c0-.6326698-.1949981-1.1223316-.585-1.469-.390002-.3466684-.9923293-.52-1.807-.52-.4593356 0-.8514984.0563328-1.1765.169s-.591499.2643324-.7995.455-.3596662.4138321-.455.6695-.143.5264986-.143.8125c0 .4940025.1256654.8991651.377 1.2155s.6239975.5611658 1.118.7345l1.261.455c.1733342.0693337.3249993.1624994.455.2795.1300006.1170006.195.2881655.195.5135 0 .2773347-.0823325.4853326-.247.624s-.3856653.208-.663.208c-.3033349 0-.5351659-.0931657-.6955-.2795s-.2405-.4311652-.2405-.7345zm8.047 1.469v.819h1.716v-6.994h-1.794v4.641c0 .7713372-.3163302 1.157-.949 1.157-.268668 0-.4636661-.0714993-.585-.2145s-.182-.3964982-.182-.7605v-4.823h-1.794v5.187c0 .7020035.1538318 1.2024985.4615 1.5015s.7474971.4485 1.3195.4485c.3900019 0 .7366651-.0736659 1.04-.221.3033348-.1473341.5503324-.3943316.741-.741zm2.912-6.175v6.994h1.794v-4.602c0-.4160021.084499-.7193324.2535-.91s.396499-.286.6825-.286c.251335 0 .431166.0779992.5395.234s.1625.3813319.1625.676v4.888h1.794v-4.602c0-.4160021.084499-.7193324.2535-.91s.396499-.286.6825-.286c.251335 0 .431166.0779992.5395.234s.1625.3813319.1625.676v4.888h1.794v-5.083c0-.6760034-.140832-1.1938315-.4225-1.5535s-.721497-.5395-1.3195-.5395c-.424669 0-.790832.0931657-1.0985.2795s-.530833.4658315-.6695.8385h-.026c-.095334-.3640018-.283832-.6413324-.5655-.832s-.630498-.286-1.0465-.286c-.390002 0-.725832.0693326-1.0075.208s-.535166.3683317-.7605.689h-.026v-.715z"/><path d="m62.916 49h5.472v-26.904h-4.028c-.2786681 1.5200076-.9436614 2.6219966-1.995 3.306s-2.4889909 1.026-4.313 1.026h-.494v3.572h5.358zm28.576 0v-4.256h-10.146c.1266673-.5066692.4179977-1.1083299.874-1.805s1.0893293-1.4123297 1.9-2.147l3.04-2.812c.7600038-.6840034 1.4059973-1.3489968 1.938-1.995s.962665-1.3109966 1.292-1.995.5699992-1.3996629.722-2.147.228-1.5516624.228-2.413c0-2.3560118-.6586601-4.167327-1.976-5.434s-3.3439863-1.9-6.08-1.9c-2.8880144 0-5.0033266.6713266-6.346 2.014s-2.014 3.2679875-2.014 5.776v1.026h5.244c0-.7093369.0316664-1.3806635.095-2.014s.2026656-1.1906643.418-1.672.5193314-.8613319.912-1.14.9309966-.418 1.615-.418c1.7733422 0 2.66 1.1146555 2.66 3.344 0 .6840034-.0316663 1.2919973-.095 1.824s-.1963323 1.0259977-.399 1.482-.4876648.9119977-.855 1.368-.854997.9499973-1.463 1.482l-2.204 2.052c-.9880049.9120046-1.8556629 1.8176622-2.603 2.717s-1.3679975 1.817662-1.862 2.755-.8613321 1.9253281-1.102 2.964-.361 2.1533274-.361 3.344z"/></g></svg>