<svg height="100" viewBox="0 0 150 100" width="150" xmlns="http://www.w3.org/2000/svg"><g fill="none" fill-rule="evenodd"><path d="m27 25h97v49h-97z" stroke="#ff6b6b" stroke-width="2"/><g fill="#ff6b6b" fill-rule="nonzero" stroke="#fff" transform="translate(63 35)"><path d="m11.9975456 30c-.2002782 0-.4025198-.0593226-.5757997-.181795-.4648613-.3291446-11.4217459-8.1922562-11.4217459-18.1546214 0-6.54079225 5.27202814-11.6635836 11.9970547-11.6635836 6.7309172 0 12.0029453 5.12279135 12.0029453 11.6635836 0 9.9642789-10.9603207 17.8259552-11.4237094 18.1546214-.172789.1224724-.3769942.181795-.578745.181795zm0-28.0882822c-5.62546019 0-10.03354331 4.28270715-10.03354331 9.7499522 0 7.7636027 7.82066596 14.4345219 10.03354331 16.1701856 2.2128774-1.7332717 10.0394339-8.4161511 10.0394339-16.1701856 0-5.46533141-4.4100467-9.7499522-10.0394339-9.7499522z"/><path d="m12 17c-2.75578947 0-5-2.2421053-5-5 0-2.75789474 2.24421053-5 5-5 2.7594737 0 5 2.24210526 5 5 0 2.7578947-2.2426316 5-5 5zm0-7.89473684c-1.5957895 0-2.89473684 1.29894734-2.89473684 2.89473684s1.29894734 2.8947368 2.89473684 2.8947368c1.5978947 0 2.8947368-1.2989473 2.8947368-2.8947368s-1.2947368-2.89473684-2.8947368-2.89473684z"/></g></g></svg>