<svg enable-background="new 0 0 150 100" viewBox="0 0 150 100" xmlns="http://www.w3.org/2000/svg"><g fill="#ff6b6b"><path d="m25 55.4h8v-2.4h-5.1v-11.9h-2.9zm11.6-5.4v1.5c0 .5.1.9.2 1.2s.2.6.4.8.5.3.8.3c.6 0 .9-.3 1.2-.9.2-.6.3-1.6.3-2.9s-.1-2.3-.3-2.9-.6-.9-1.2-.9c-.3 0-.6.1-.8.3s-.3.4-.4.8c-.1.3-.2.7-.2 1.2zm-2.8 0c0-.9.1-1.7.2-2.4s.4-1.3.7-1.8.8-.8 1.3-1.1c.5-.2 1.2-.4 2-.4s1.5.1 2.1.3 1 .6 1.3 1.1.5 1.1.7 1.8c.1.7.2 1.5.2 2.5 0 .9-.1 1.7-.2 2.4s-.4 1.3-.7 1.8-.8.8-1.3 1-1.2.3-2 .3-1.5-.1-2.1-.3-1-.6-1.3-1c-.3-.5-.5-1.1-.7-1.8s-.2-1.4-.2-2.4zm10-5.3v10.8h2.8v-6.5c0-.4.1-.7.2-.9s.3-.4.5-.6.4-.3.7-.3c.2-.1.5-.1.7-.1h.4.4v-2.6c-.1 0-.2 0-.2 0-.1 0-.2 0-.2 0-.6 0-1.1.2-1.5.5s-.7.7-1 1.2v-1.4h-2.8zm11.8 4.1c0-.4 0-.8-.1-1.1s-.1-.6-.2-.8-.2-.4-.4-.5-.4-.2-.7-.2-.5.1-.7.2-.3.3-.4.5-.2.4-.2.7-.1.5-.1.8v.4zm-2.8 1.7v.9c0 .3 0 .6.1.9 0 .3.1.6.2.8s.2.4.4.6c.2.1.4.2.6.2.5 0 .8-.2 1-.5s.4-.8.4-1.5h2.5c-.1 1.3-.4 2.2-1 2.9s-1.6 1-2.9 1c-1 0-1.8-.2-2.3-.5-.6-.3-1-.8-1.2-1.3-.3-.5-.4-1.2-.5-1.8-.1-.7-.1-1.4-.1-2 0-.7 0-1.4.1-2.1s.3-1.3.6-1.8.7-.9 1.3-1.2 1.3-.5 2.2-.5c.8 0 1.5.1 2 .4s.9.6 1.2 1.1.5 1 .6 1.7.2 1.4.2 2.2v.6h-5.4zm6.9-5.8v10.8h2.8v-7.1c0-.6.1-1.1.4-1.4s.6-.4 1.1-.4c.4 0 .7.1.8.4.2.2.2.6.2 1v7.5h2.8v-7.1c0-.6.1-1.1.4-1.4s.6-.4 1.1-.4c.4 0 .7.1.8.4.2.2.2.6.2 1v7.5h2.7v-7.8c0-1-.2-1.8-.6-2.4s-1.1-.8-2-.8c-.7 0-1.2.1-1.7.4s-.8.7-1 1.3c-.1-.6-.4-1-.9-1.3s-1-.4-1.6-.4-1.1.1-1.5.3-.8.6-1.2 1.1v-1.1zm20.2 10.7h2.9v-11.3h-2.9zm4.9-10.7h2.6v1.1c.3-.5.7-.9 1-1.1.4-.2.8-.3 1.4-.3 1.1 0 2 .4 2.5 1.3s.8 2.3.8 4.3-.3 3.4-.8 4.3-1.4 1.3-2.5 1.3c-.5 0-1-.1-1.3-.3-.4-.2-.7-.5-1-.9v4.5h-2.8v-14.2zm2.8 5.3c0 1.2.1 2.1.3 2.7s.6.9 1.2.9 1-.3 1.2-.9.3-1.5.3-2.7-.1-2.1-.3-2.6c-.2-.6-.6-.9-1.2-.9s-1 .3-1.2.9-.3 1.5-.3 2.6zm9.2 1.9h-2.5v.4c0 .5.1 1 .2 1.4s.3.8.6 1.1.7.5 1.2.7 1.2.2 1.9.2c.6 0 1.1-.1 1.6-.2s.9-.3 1.3-.6.6-.6.8-1 .3-.9.3-1.5c0-.8-.2-1.5-.5-1.9s-1-.9-1.8-1.2l-1.7-.6c-.5-.1-.8-.3-.9-.5-.2-.2-.2-.5-.2-.7 0-.4.1-.7.4-.9s.6-.3.9-.3c.5 0 .8.1 1 .4s.3.7.3 1.2h2.5v-.4c0-1-.3-1.7-.9-2.3-.6-.5-1.5-.8-2.8-.8-.7 0-1.3.1-1.8.3s-.9.4-1.2.7-.6.6-.7 1-.2.8-.2 1.2c0 .8.2 1.4.6 1.9s1 .9 1.7 1.1l1.9.7c.3.1.5.2.7.4s.3.4.3.8-.1.7-.4 1c-.3.2-.6.3-1 .3-.5 0-.8-.1-1.1-.4-.2-.3-.4-.7-.4-1.1v-.4zm12.4 2.3v1.3h2.6v-10.8h-2.8v7.1c0 1.2-.5 1.8-1.5 1.8-.4 0-.7-.1-.9-.3s-.3-.6-.3-1.2v-7.4h-2.8v8c0 1.1.2 1.8.7 2.3s1.1.7 2 .7c.6 0 1.1-.1 1.6-.3.7-.3 1.1-.7 1.4-1.2zm4.5-9.5v10.8h2.8v-7.1c0-.6.1-1.1.4-1.4s.6-.4 1.1-.4c.4 0 .7.1.8.4.2.2.2.6.2 1v7.5h2.8v-7.1c0-.6.1-1.1.4-1.4s.6-.4 1.1-.4c.4 0 .7.1.8.4.2.2.2.6.2 1v7.5h2.8v-7.8c0-1-.2-1.8-.6-2.4s-1.1-.8-2-.8c-.7 0-1.2.1-1.7.4s-.8.7-1 1.3c-.1-.6-.4-1-.9-1.3s-1-.4-1.6-.4-1.1.1-1.5.3-.8.6-1.2 1.1v-1.1z"/><path d="m79.9 39.7h2.9v2.3h-2.9z"/></g></svg>