<svg height="100" viewBox="0 0 150 100" width="150" xmlns="http://www.w3.org/2000/svg"><g fill="none" fill-rule="evenodd"><path d="m37 22h77v57h-77z" stroke="#ff6b6b" stroke-width="2"/><g transform="translate(49 32)"><path d="m17.9553862 6.36421539 9.1386108 15.89870161c.1124537.1956392.3553354.2467457.5356072.1190273l7.7522021-5.4922589c.3628572-.2570762.8460555-.1673923 1.0883608.2146743l14.0889717 16.5616249c.2382279.3756373.0659818.6801518-.3546526.6801518h-49.54731609c-.43525573 0-.62436621-.318052-.41883166-.7173009l16.94130105-27.25448093c.2039413-.39615434.5553067-.39364483.7757467-.01013918zm25.7850444 2.92424615c2.3247488 0 4.2093302-1.89848479 4.2093302-4.24038462 0-2.34189985-1.8845814-4.24038461-4.2093302-4.24038461s-4.2093301 1.89848476-4.2093301 4.24038461c0 2.34189983 1.8845813 4.24038462 4.2093301 4.24038462z" fill="#ff6b6b"/><path d="m17.9553862 6.36421539 9.1386108 15.89870161c.1124537.1956392.3553354.2467457.5356072.1190273l7.7522021-5.4922589c.3628572-.2570762.8460555-.1673923 1.0883608.2146743l14.0889717 16.5616249c.2382279.3756373.0659818.6801518-.3546526.6801518h-49.54731609c-.43525573 0-.62436621-.318052-.41883166-.7173009l16.94130105-27.25448093c.2039413-.39615434.5553067-.39364483.7757467-.01013918zm25.7850444 2.92424615c2.3247488 0 4.2093302-1.89848479 4.2093302-4.24038462 0-2.34189985-1.8845814-4.24038461-4.2093302-4.24038461s-4.2093301 1.89848476-4.2093301 4.24038461c0 2.34189983 1.8845813 4.24038462 4.2093301 4.24038462z"/></g></g></svg>