<svg height="100" viewBox="0 0 150 100" width="150" xmlns="http://www.w3.org/2000/svg"><g fill="none" fill-rule="evenodd"><g transform="translate(30 23)"><path d="m-1-1h93v57h-93z" stroke="#ff6b6b" stroke-width="2"/><path d="m-1-1h93v57h-93z" stroke="#ff6b6b" stroke-width="2"/><g fill="#ff6b6b"><path d="m7 39h43v5h-43z"/><path d="m41.3338281 9.19310353 6.3321907 10.68565787c.0779197.1314909.2462137.16584.371125.0799994l5.371541-3.6913958c.2514256-.1727832.5862362-.1125059.7541308.1442844l9.7623216 11.1312146c.1650693.2524691.0457191.457136-.2457407.457136h-34.331592c-.3015909 0-.4326266-.2137656-.2902106-.4821043l11.7387152-18.31797754c.1413121-.26625884.3847749-.26457217.537519-.00681463z"/><path d="m60 11c1.6568542 0 3-1.3431457 3-3 0-1.65685432-1.3431458-3-3-3s-3 1.34314568-3 3c0 1.6568543 1.3431458 3 3 3z"/></g><path d="m79 40 4 4.5-4 4.5" stroke="#ff6b6b" stroke-width="2"/></g><g stroke="#ff6b6b" stroke-linecap="square"><path d="m37.5 69.5h35"/><path d="m37.5 72.5h24"/></g></g></svg>