<svg height="100" viewBox="0 0 150 100" width="150" xmlns="http://www.w3.org/2000/svg"><g fill="none" fill-rule="evenodd" transform="translate(50 18)"><path d="m-1-1h52v67h-52z" stroke="#ff6b6b" stroke-width="2"/><path d="m20.3034801 9.20210735 5.756537 9.64677455c.0708361.118707.2238307.1497166.3373864.0722216l4.8832191-3.3325101c.2285687-.1559848.532942-.1015678.6855734.1302568l8.8748378 10.0490131c.150063.2279236.0415628.4126923-.2234006.4126923h-31.21053819c-.2741736 0-.3932969-.1929829-.26382785-.4352331l10.67155934-16.53706305c.1284655-.24037256.3497953-.23884987.4886536-.0061521z" fill="#ff6b6b"/><path d="m5.454545 48.75h39.090909v4.513889h-39.090909z" fill="#ff6b6b"/><g stroke="#ff6b6b" stroke-linecap="square" stroke-width=".9"><path d="m8.63636364 57.3263889h31.81818186"/><path d="m9.54545455 43.7847222h5.45454545"/><path d="m22.2727273 43.7847222h5.4545454"/><path d="m35 43.7847222h5.4545455"/></g><g fill="#ff6b6b"><ellipse cx="12.272727" cy="37.465278" rx="4.090909" ry="4.0625"/><ellipse cx="25" cy="37.465278" rx="4.090909" ry="4.0625"/><ellipse cx="37.727273" cy="37.465278" rx="4.090909" ry="4.0625"/></g><path d="m37.2727273 10.8333333c1.5062311 0 2.7272727-1.21256206 2.7272727-2.7083333 0-1.49577126-1.2210416-2.70833333-2.7272727-2.70833333s-2.7272728 1.21256207-2.7272728 2.70833333c0 1.49577124 1.2210417 2.7083333 2.7272728 2.7083333z" fill="#ff6b6b"/></g></svg>