<svg enable-background="new 0 0 150 100" viewBox="0 0 150 100" xmlns="http://www.w3.org/2000/svg"><g fill="#ff6b6b"><g enable-background="new"><path d="m43.7 20.6h1.4v5h2.5v1.2h-3.9z"/><path d="m49.9 20.6v6.2h-1.4v-6.2z"/><path d="m51.1 26.9v-6.2h1.6l1.3 2.3c.4.7.7 1.4 1 2.1-.1-.8-.1-1.7-.1-2.6v-1.8h1.3v6.2h-1.5l-1.3-2.4c-.4-.7-.8-1.5-1.1-2.2 0 .8.1 1.7.1 2.7v1.9z"/><path d="m57.5 20.6h1.4v2.8c.1-.2.3-.5.4-.7l1.4-2.1h1.7l-2.1 2.7 2.2 3.6h-1.6l-1.5-2.7-.5.7v2h-1.4z"/><path d="m66.4 20.6v2.4h2.3v-2.4h1.4v6.2h-1.4v-2.6h-2.3v2.6h-1.4v-6.2z"/><path d="m75.1 24.2h-2.3v1.5h2.6v1.2h-4v-6.2h3.8v1.2h-2.4v1.3h2.3z"/><path d="m77.8 25.3-.4 1.6h-1.5l1.9-6.2h1.8l1.9 6.2h-1.5l-.5-1.6zm1.5-1.1-.3-1.3c-.1-.4-.2-.8-.3-1.2-.1.4-.2.8-.3 1.2l-.4 1.3z"/><path d="m82.4 20.7c.5-.1 1.2-.1 1.9-.1 1.2 0 2 .2 2.6.7s1.1 1.2 1.1 2.3c0 1.2-.4 2-1 2.5-.7.5-1.7.8-2.9.8-.7 0-1.3 0-1.6-.1v-6.1zm1.4 5.1h.5c1.3 0 2.1-.7 2.1-2.2 0-1.3-.8-2-2-2-.3 0-.5 0-.6.1z"/><path d="m88.8 20.6h1.4v5h2.5v1.2h-3.9z"/><path d="m95 20.6v6.2h-1.4v-6.2z"/><path d="m96.2 26.9v-6.2h1.6l1.3 2.3c.4.7.7 1.4 1 2.1-.1-.8-.1-1.7-.1-2.6v-1.8h1.3v6.2h-1.5l-1.3-2.4c-.4-.7-.8-1.5-1.1-2.2 0 .8.1 1.7.1 2.7v1.9z"/><path d="m106.3 24.2h-2.3v1.5h2.6v1.2h-4v-6.2h3.8v1.2h-2.4v1.3h2.3z"/></g><g enable-background="new"><path d="m43.8 43.5h1.2v5.4h2.6v1h-3.8z"/><path d="m49 44.6c-.4 0-.6-.3-.6-.6 0-.4.3-.6.7-.6s.6.3.7.6c-.1.3-.4.6-.8.6zm-.6 5.3v-4.6h1.2v4.6z"/><path d="m50.9 46.7c0-.5 0-1 0-1.4h1l.1.7c.2-.4.7-.8 1.5-.8s1.6.5 1.6 2v2.8h-1.2v-2.6c0-.7-.2-1.2-.9-1.2-.5 0-.8.3-.9.7 0 .1-.1.2-.1.4v2.7h-1.2v-3.3z"/><path d="m57.5 47.3c.1-.2.3-.4.4-.5l1.1-1.5h1.4l-1.7 1.9 2 2.7h-1.4l-1.3-2-.4.5v1.6h-1.2v-6.8h1.2v4.1z"/><path d="m64.8 44.8-1.2.6-.2-.9 1.5-.7h1v6.2h-1.1z"/></g><g enable-background="new"><path d="m43.8 57.8h1.2v5.4h2.6v1h-3.8z"/><path d="m49 58.9c-.4 0-.6-.3-.6-.6 0-.4.3-.6.7-.6s.6.3.7.6c-.1.3-.4.6-.8.6zm-.6 5.3v-4.6h1.2v4.6z"/><path d="m50.9 61c0-.5 0-1 0-1.4h1l.1.7c.2-.4.7-.8 1.5-.8s1.6.5 1.6 2v2.8h-1.2v-2.6c0-.7-.2-1.2-.9-1.2-.5 0-.8.3-.9.7 0 .1-.1.2-.1.4v2.7h-1.2v-3.3z"/><path d="m57.5 61.6c.1-.2.3-.4.4-.5l1.1-1.5h1.4l-1.7 1.9 2 2.7h-1.4l-1.3-2-.4.5v1.6h-1.2v-6.8h1.2v4.1z"/><path d="m62.9 64.2v-.7l.7-.7c1.5-1.3 2.1-2.1 2.2-2.9 0-.6-.3-1-1.1-1-.6 0-1 .3-1.3.5l-.4-.8c.4-.4 1.1-.6 1.9-.6 1.4 0 2 .9 2 1.9 0 1.1-.8 2-1.9 3l-.5.5h2.5v1h-4.1z"/></g><g enable-background="new"><path d="m43.8 72.1h1.2v5.4h2.6v1h-3.8z"/><path d="m49 73.2c-.4 0-.6-.3-.6-.6 0-.4.3-.6.7-.6s.6.3.7.6c-.1.3-.4.6-.8.6zm-.6 5.3v-4.6h1.2v4.6z"/><path d="m50.9 75.3c0-.5 0-1 0-1.4h1l.1.7c.2-.4.7-.8 1.5-.8s1.6.5 1.6 2v2.8h-1.2v-2.6c0-.7-.2-1.2-.9-1.2-.5 0-.8.3-.9.7 0 .1-.1.2-.1.4v2.7h-1.2v-3.3z"/><path d="m57.5 75.9c.1-.2.3-.4.4-.5l1.1-1.5h1.4l-1.7 1.9 2 2.7h-1.4l-1.3-2-.4.5v1.6h-1.2v-6.8h1.2v4.1z"/><path d="m63.2 77.3c.2.1.8.4 1.4.4.9 0 1.2-.5 1.2-1 0-.7-.7-1-1.4-1h-.5v-.9h.5c.5 0 1.2-.2 1.2-.9 0-.4-.3-.8-1-.8-.5 0-1 .2-1.3.4l-.3-.8c.4-.2 1-.5 1.8-.5 1.3 0 1.9.7 1.9 1.5 0 .6-.4 1.2-1.1 1.4.8.1 1.4.7 1.4 1.5 0 1-.9 1.9-2.4 1.9-.8 0-1.4-.2-1.7-.4z"/></g><path d="m43.1 34.3h21.9v1.1h-21.9z"/></g></svg>