<svg height="100" viewBox="0 0 150 100" width="150" xmlns="http://www.w3.org/2000/svg"><g fill="none" fill-rule="evenodd"><g transform="translate(50 18)"><g transform="translate(8 49)"><g stroke="#ff6b6b" stroke-linecap="square" stroke-width=".9"><path d="m1.45454545 10.3541667h5.45454546"/><path d="m14.2727273 10.7847222h5.4545454"/><path d="m27 10.7847222h5.4545455"/></g><ellipse cx="4.272727" cy="4.465278" fill="#ff6b6b" rx="4.090909" ry="4.0625"/><ellipse cx="17" cy="4.465278" fill="#ff6b6b" rx="4.090909" ry="4.0625"/><ellipse cx="29.727273" cy="4.465278" fill="#ff6b6b" rx="4.090909" ry="4.0625"/></g><path d="m-1-1h52v67h-52z" stroke="#ff6b6b" stroke-width="2"/><g transform="translate(5 35)"><path d="m.454545.75h39.090909v4.513889h-39.090909z" fill="#ff6b6b"/><path d="m3.63636364 9.32638889h31.81818186" stroke="#ff6b6b" stroke-linecap="square" stroke-width=".9"/></g><g stroke="#ff6b6b" stroke-linecap="square" stroke-width=".9"><path d="m9.45454545 3.35416667h4.04545455"/><path d="m44.4946902 3.35416667h2.0053098"/><path d="m40.4946902 3.35416667h2.0053098"/><path d="m36.4946902 3.35416667h2.0053098"/><path d="m32.4946902 3.35416667h2.0053098"/></g><g fill="#ff6b6b" transform="translate(2 1)"><path d="m2.11437052 1.03049003 1.08551842 1.68720915c.01335767.02076171.04220807.02618526.06362143.01263147l.9208356-.58285197c.04310154-.02728155.10049764-.01776408.12927957.02278176l1.67354083 1.75756019c.0282976.03986355.00783757.07217937-.04212697.07217937h-5.88541577c-.05170131 0-.07416456-.03375246-.04975039-.07612173l2.01235118-2.89231224c.02422492-.04204087.06596141-.04177456.0921461-.001076z"/><path d="m5.5 1c.27614237 0 .5-.22385762.5-.5 0-.27614239-.22385763-.5-.5-.5s-.5.22385761-.5.5c0 .27614238.22385763.5.5.5z"/></g></g><path d="m50 25h51v23h-51z" fill="#ff6b6b"/><g fill="#fff" transform="translate(64 29)"><path d="m7.61494355 2.78741211 3.86284135 6.47332927c.0475336.07965663.1501984.10046521.2263983.04846327l3.2768139-2.23623296c.1533778-.10467135.3576231-.0681556.4600443.08740696l5.9553322 6.74324575c.1006976.1529448.0278901.2769312-.1499098.2769312h-20.9433827c-.18398025 0-.26391622-.1294984-.17703788-.2920569l7.16099638-11.09695831c.08620491-.16129855.23472515-.16027678.32790395-.00412828z"/><path d="m19.0019128 3.88202284c1.0107347 0 1.8300971-.81367235 1.8300971-1.81738813 0-1.00371579-.8193624-1.81738812-1.8300971-1.81738812s-1.8300971.81367233-1.8300971 1.81738812c0 1.00371578.8193624 1.81738813 1.8300971 1.81738813z"/></g></g></svg>