<svg enable-background="new 0 0 150 100" viewBox="0 0 150 100" xmlns="http://www.w3.org/2000/svg"><g fill="#ff6b6b"><path d="m34 51.5v-3c-1.7 0-3.5-.6-4.5-1.3l.7-2c1 .7 2.6 1.3 4.2 1.3 2.2 0 3.6-1.2 3.6-2.9 0-1.6-1.2-2.7-3.4-3.6-3-1.2-4.9-2.6-4.9-5.2 0-2.5 1.8-4.4 4.5-4.8v-3h1.9v2.9c1.8.1 3 .5 3.9 1l-.7 2c-.6-.4-1.9-1-3.8-1-2.3 0-3.2 1.4-3.2 2.6 0 1.5 1.1 2.3 3.7 3.4 3.1 1.3 4.6 2.8 4.6 5.4 0 2.4-1.6 4.6-4.7 5.1v3.1z"/><g enable-background="new"><path d="m44.9 64.7v-2.5l3.1-3c7.6-7.2 11-11 11-15.5 0-3-1.4-5.8-5.8-5.8-2.7 0-4.9 1.4-6.3 2.5l-1.3-2.8c2-1.7 5-3 8.4-3 6.3 0 9 4.4 9 8.6 0 5.5-4 9.9-10.2 15.9l-2.3 2.2v.1h13.2v3.3z"/><path d="m77.7 65.2c-5.8 0-9.7-5.4-9.8-15.2 0-10 4.3-15.4 10.3-15.4 6.2 0 9.8 5.5 9.8 15 0 10-3.8 15.6-10.3 15.6zm.2-3.1c4 0 6-4.8 6-12.3 0-7.3-1.8-12.1-6-12.1-3.6 0-6 4.6-6 12.1-.1 7.7 2.3 12.3 6 12.3z"/></g><g enable-background="new"><path d="m93.5 62.7 4.7-12.2h1.2l-4.7 12.2z"/><path d="m100.7 56.1c0-.9-.1-1.5-.2-2.2h1.2l.1 1.3h.1c.5-.8 1.2-1.5 2.6-1.5 1.1 0 1.9.7 2.3 1.6.3-.5.6-.8.9-1.1.5-.4 1-.6 1.8-.6 1.1 0 2.7.7 2.7 3.5v4.9h-1.4v-4.6c0-1.6-.6-2.5-1.8-2.5-.9 0-1.5.6-1.8 1.3-.1.2-.1.5-.1.7v5h-1.4v-4.9c0-1.3-.6-2.2-1.7-2.2-.9 0-1.6.7-1.8 1.5-.1.2-.1.5-.1.7v5h-1.4z"/><path d="m117.8 62.2c-2.2 0-3.9-1.6-3.9-4.2 0-2.7 1.8-4.3 4-4.3 2.3 0 3.9 1.7 3.9 4.2.1 3-2 4.3-4 4.3zm.1-1.1c1.4 0 2.5-1.3 2.5-3.2 0-1.4-.7-3.1-2.4-3.1s-2.5 1.6-2.5 3.2c-.1 1.8.9 3.1 2.4 3.1z"/></g></g></svg>