<svg height="100" viewBox="0 0 150 100" width="150" xmlns="http://www.w3.org/2000/svg"><g fill="none" fill-rule="evenodd"><g transform="translate(27 21)"><g stroke="#ff6b6b"><path d="m.8.8h26.4v56.4h-26.4z" stroke-width="1.6"/><path d="m5.34615385 15h17.30769235" stroke-linecap="square"/><path d="m7.35 8h13.3" stroke-linecap="square" stroke-width="4"/><path d="m7.35 20h12.9547289" stroke-linecap="square"/><path d="m6.34090909 25h14.65909091" stroke-linecap="square"/><path d="m8.34210526 29h12.65789474" stroke-linecap="square"/><path d="m5.34615385 34h17.65384615" stroke-linecap="square"/></g><path d="m7.08383234 45.3379694h2.43113772v-.4172462c0-.2781655.02095787-.5030126.06287425-.674548s.09780404-.303662.16766467-.3963838c.06986063-.0927219.14670617-.1553082.23053892-.1877608.0838328-.0324526.1723216-.0486787.2654691-.0486787.2049245 0 .3679302.0788124.4890219.2364395.1210918.1576271.1816367.4450605.1816367.8623087 0 .3708874-.053559.6699108-.1606786.8970793s-.2864259.4659237-.5379241.7162726l-1.73253498 1.752434c-.56819978.5841475-.95708478 1.1845124-1.16666666 1.8011126-.20958189.6166002-.31437126 1.2725974-.31437126 1.9680111h6.510978v-1.9471488h-3.4091816c.0465738-.1483549.1373912-.2920716.2724551-.4311544.1350639-.1390827.2584825-.2642553.3702595-.3755215l1.5369261-1.488178c.37259-.3708874.6706576-.7834934.8942116-1.2378304s.3353293-1.0152957.3353293-1.6828929c0-.3708873-.0442444-.718589-.1327345-1.0431154s-.2514958-.6096418-.4890219-.8553547c-.2375262-.2457128-.5612089-.4381078-.9710579-.5771905-.409849-.1390828-.9407819-.2086231-1.5928144-.2086231-.67997679 0-1.22953882.0788124-1.64870259.2364395-.41916378.1576271-.74517515.3824742-.97804392.674548-.23286876.2920738-.39121714.6444115-.4750499 1.0570236-.08383275.4126122-.1304058.8692604-.13972055 1.3699583zm9.78043916 3.310153c0 .6954138.0605449 1.16597.1816367 1.4116829.1210917.2457129.3166986.3685674.5868263.3685674.2701278 0 .4657346-.1228545.5868264-.3685674.1210917-.2457129.1816367-.7162691.1816367-1.4116829v-3.2545202c0-.6954137-.060545-1.16597-.1816367-1.4116829-.1210918-.2457128-.3166986-.3685674-.5868264-.3685674-.2701277 0-.4657346.1228546-.5868263.3685674-.1210918.2457129-.1816367.7162692-.1816367 1.4116829zm-2.5988024-1.6272601c0-.9921236.0675309-1.8126996.2025948-2.4617524.1350639-.6490529.3399853-1.1636513.6147704-1.5438109.2747852-.3801595.6240831-.6444128 1.0479042-.7927677.4238212-.1483549.9244815-.2225313 1.501996-.2225313.5775146 0 1.0781749.0741764 1.501996.2225313.4238212.1483549.7731191.4126082 1.0479042.7927677.2747852.3801596.4797066.894758.6147705 1.5438109.1350639.6490528.2025948 1.4696288.2025948 2.4617524 0 1.0013958-.0675309 1.8242898-.2025948 2.4687065-.1350639.6444168-.3399853 1.1543793-.6147705 1.5299027-.2747851.3755234-.624083.6328227-1.0479042.7719054-.4238211.1390828-.9244814.2086231-1.501996.2086231-.5775145 0-1.0781748-.0695403-1.501996-.2086231-.4238211-.1390827-.773119-.396382-1.0479042-.7719054-.2747851-.3755234-.4797065-.8854859-.6147704-1.5299027-.1350639-.6444167-.2025948-1.4673107-.2025948-2.4687065z" fill="#ff6b6b"/></g><g transform="translate(59 17)"><g stroke="#ff6b6b"><path d="m.8.8h30.4v64.058757h-30.4z" stroke-width="1.6"/><path d="m6 17.5389831h20" stroke-linecap="square"/><path d="m8.4 9.4440678h15.2" stroke-linecap="square" stroke-width="4"/><path d="m8.4 22.9355932h14.8054044" stroke-linecap="square"/><path d="m7.6 28.3322034h17.2" stroke-linecap="square"/><path d="m9.2 33.7288136h14.8" stroke-linecap="square"/><path d="m6 39.1254237h20.4" stroke-linecap="square"/></g><path d="m8.512 50.7129492h2.688c0-.5973364.0613327-1.0079989.184-1.232.1226673-.2240012.3279986-.336.616-.336.2560013 0 .4453327.0826658.568.248.1226673.1653341.184.4879976.184.968 0 .3306683-.0266664.5999989-.08.808-.0533336.208001-.1333328.370666-.24.488-.1066672.1173339-.2399992.1973331-.4.24-.1600008.0426668-.3519989.064-.576.064h-.432v1.856h.752c.3733352 0 .6479991.095999.824.288.1760009.1920009.264.5653305.264 1.12 0 .3520017-.0106666.6426655-.032.872-.0213334.2293344-.061333.410666-.12.544s-.1413328.2239997-.248.272c-.1066672.0480002-.2453325.072-.416.072-.3200016 0-.5439994-.1386653-.672-.416-.0640003-.1493341-.1146665-.3306656-.152-.544s-.056-.4799984-.056-.8h-2.784c0 .68267.07466592 1.2559976.224 1.72.14933408.4640023.37866512.8346652.688 1.112.30933488.2773347.70133096.4693328 1.176.576.474669.1066672 1.0319968.16 1.672.16 1.2266728 0 2.1493302-.2799972 2.768-.84s.928-1.4799936.928-2.76c0-.6186698-.133332-1.1546644-.4-1.608s-.7306634-.7439994-1.392-.872v-.032c.2986682-.0640004.5493323-.1759992.752-.336s.3653327-.343999.488-.552c.1226673-.2080011.2106664-.4319988.264-.672s.08-.4719989.08-.696c0-.5013359-.0559994-.9466648-.168-1.336-.1120006-.3893353-.3039986-.717332-.576-.984s-.637331-.4693327-1.096-.608c-.458669-.1386674-1.0346632-.208-1.728-.208-1.1626725 0-2.0373304.2773305-2.624.832-.5866696.5440027-.89599984 1.407994-.928 2.592zm11.168 4.224c0 .800004.0693326 1.3413319.208 1.624.1386674.282668.3626651.424.672.424s.5333326-.141332.672-.424c.1386674-.2826681.208-.823996.208-1.624v-3.744c0-.800004-.0693326-1.341332-.208-1.624-.1386674-.2826681-.3626651-.424-.672-.424s-.5333326.1413319-.672.424c-.1386674.282668-.208.823996-.208 1.624zm-2.976-1.872c0-1.1413391.0773326-2.0853296.232-2.832s.3893318-1.3386645.704-1.776c.3146682-.4373356.7146642-.7413325 1.2-.912.4853358-.1706676 1.0586634-.256 1.72-.256s1.2346642.0853324 1.72.256c.4853358.1706675.8853318.4746644 1.2.912.3146682.4373355.5493326 1.0293296.704 1.776s.232 1.6906609.232 2.832c0 1.1520057-.0773326 2.0986629-.232 2.84-.1546674.741337-.3893318 1.3279978-.704 1.76-.3146682.4320021-.7146642.7279992-1.2.888s-1.0586634.24-1.72.24-1.2346642-.0799992-1.72-.24-.8853318-.4559979-1.2-.888c-.3146682-.4320022-.5493326-1.018663-.704-1.76-.1546674-.7413371-.232-1.6879943-.232-2.84z" fill="#ff6b6b"/></g><g transform="translate(95 21)"><g stroke="#ff6b6b"><path d="m.8.8h26.4v56.4h-26.4z" stroke-width="1.6"/><path d="m5.34615385 15h17.30769235" stroke-linecap="square"/><path d="m7.35 8h13.3" stroke-linecap="square" stroke-width="4"/><path d="m7.35 20h12.9547289" stroke-linecap="square"/><path d="m6.34090909 25h14.65909091" stroke-linecap="square"/><path d="m8.34210526 29h12.65789474" stroke-linecap="square"/><path d="m5.34615385 34h17.65384615" stroke-linecap="square"/></g><path d="m7 48.0639777 3.120398-5.8692628h2.8139304v5.9527121h.8636816v1.8636996h-.8636816v1.8358831h-2.4238806v-1.8358831h-3.5104478zm3.5940299.0834493v-3.2823366h-.0278607l-1.61592044 3.2823366zm6.282587.5006954c0 .6954138.0603643 1.16597.1810945 1.4116829.1207303.2457129.3157533.3685674.5850747.3685674s.4643443-.1228545.5850746-.3685674.1810945-.7162691.1810945-1.4116829v-3.2545202c0-.6954137-.0603642-1.16597-.1810945-1.4116829-.1207303-.2457128-.3157532-.3685674-.5850746-.3685674s-.4643444.1228546-.5850747.3685674c-.1207302.2457129-.1810945.7162692-.1810945 1.4116829zm-2.5910448-1.6272601c0-.9921236.0673294-1.8126996.2019901-2.4617524.1346607-.6490529.3389704-1.1636513.6129353-1.5438109.2739649-.3801595.6222201-.6444128 1.0447761-.7927677s.9217219-.2225313 1.4975125-.2225313 1.0749564.0741764 1.4975124.2225313.7708112.4126082 1.0447761.7927677c.2739649.3801596.4782746.894758.6129354 1.5438109.1346607.6490528.20199 1.4696288.20199 2.4617524 0 1.0013958-.0673293 1.8242898-.20199 2.4687065-.1346608.6444168-.3389705 1.1543793-.6129354 1.5299027s-.6222201.6328227-1.0447761.7719054c-.422556.1390828-.9217218.2086231-1.4975124.2086231s-1.0749565-.0695403-1.4975125-.2086231c-.422556-.1390827-.7708112-.396382-1.0447761-.7719054s-.4782746-.8854859-.6129353-1.5299027c-.1346607-.6444167-.2019901-1.4673107-.2019901-2.4687065z" fill="#ff6b6b"/></g></g></svg>