<svg height="100" viewBox="0 0 150 100" width="150" xmlns="http://www.w3.org/2000/svg"><path d="m31.4 50.4c0-4 1.8-6.8 5.1-8.2 3.7-1.6 7.5-.3 9.4 1.9.5.6 1.3 1.1 1.6 1.9.4 1.2 1.2 1.5 2.4 1.5h57.6 1c.8 0 1-.3 1-1.1 0-1.8 0-3.7 0-5.5 0-.3-.1-.7.3-.9s.6.1.8.4c1.9 2.2 4 4.3 5.8 6.6.8 1 2.5 1.8 2.3 3.1-.1 1-1.5 1.9-2.3 2.9-1.9 2.1-3.7 4.3-5.6 6.4-.3.3-.5.8-1 .6s-.3-.7-.4-1.1c0-1.6 0-3.2 0-4.8 0-1.8-.2-1.6-1.7-1.6-.3 0-.7 0-1 0-18.8 0-37.5 0-56.3 0-1.7 0-2.6.3-3.5 2-1.5 2.8-4.2 4.3-7.5 4.1-3.1-.2-5.6-1.5-7-4.4-.6-1.4-1.3-2.6-1-3.8z" fill="#fe6f6f"/></svg>