<svg height="100" viewBox="0 0 150 100" width="150" xmlns="http://www.w3.org/2000/svg" xmlns:xlink="http://www.w3.org/1999/xlink"><g fill="none" fill-rule="evenodd"><path d="m26 20h98v40h-98z" stroke="#ff6b6b" stroke-width="2"/><path d="m11.9353147 3.78763261 6.1275939 10.83743189c.0754021.1333585.2382584.1681955.3591337.0811356l5.1979833-3.7438266c.2433019-.1752373.5672946-.1141038.7297644.1463338l9.4468951 11.2893171c.1597358.2560551.0442419.4636289-.2378006.4636289h-33.22231777c-.29184637 0-.41864815-.2168018-.28083374-.4889519l11.35943031-18.57815737c.1367462-.27004065.3723426-.26833002.5201514-.00691142zm17.2893106 1.99332746c1.5587836 0 2.8224274-1.29411194 2.8224274-2.89048003 0-1.59636812-1.2636438-2.89048004-2.8224274-2.89048004s-2.8224274 1.29411192-2.8224274 2.89048004c0 1.59636809 1.2636438 2.89048003 2.8224274 2.89048003z" fill="#ff6b6b" transform="translate(57 27)"/><g stroke-linecap="square" transform="translate(33 57)"><use fill="#fff" fill-rule="evenodd" xlink:href="#a"/><path d="m-.5-.5h82v7h-82z" stroke="#ff6b6b"/></g><g transform="translate(35.490909 58.309545)"><path d="m52 0h25.036364v3h-25.036364z" fill="#ff6b6b" fill-rule="evenodd"/><path d="m51-1h27.036364v5h-27.036364z" stroke="#ff6b6b" stroke-width="2"/></g><path d="m92.490909 59.309545h17v1.66518h-17z" fill="#fff"/><path d="m35.490909 59.309545h19.682567v1.66518h-19.682567z" fill="#ff6b6b"/><path d="m53.490909 70.309545h47v3h-47z" fill="#ff6b6b" stroke="#ff6b6b"/><path d="m32.5 68.5h17v17h-17z" stroke="#ff6b6b" stroke-linecap="square"/><path id="a" d="m39.0558684 74.2871164 2.082284 3.682785c.0256232.045318.0809652.0571563.1220411.0275716l1.766383-1.2722303c.082679-.0595492.1927785-.0387748.2479891.0497273l3.2102516 3.836345c.0542816.0870128.0150343.1575508-.0808096.1575508h-11.2896352c-.0991755 0-.1422654-.0736738-.0954332-.1661561l3.860171-6.3132446c.0464691-.0917655.1265297-.0911842.1767582-.0023487zm5.8752677.6773742c.5297071 0 .9591196-.4397662.9591196-.9822453s-.4294125-.9822453-.9591196-.9822453-.9591196.4397662-.9591196.9822453.4294125.9822453.9591196.9822453z" fill="#ff6b6b"/><g stroke="#ff6b6b" stroke-linecap="square"><path d="m53.5 76.5h31"/><path d="m53.5 79.5h28"/><path d="m53.5 82.5h20"/></g></g></svg>