<svg height="100" viewBox="0 0 150 100" width="150" xmlns="http://www.w3.org/2000/svg"><g fill="none" fill-rule="evenodd"><path d="m35.5 36.5h16v8h-16z" stroke="#ff6b6b" stroke-linecap="square"/><path d="m35.5 44.5h16v8h-16z" stroke="#ff6b6b" stroke-linecap="square"/><g transform="translate(35 25)"><path d="m0 0h16v10h-16z" fill="#ff6b6b" fill-rule="evenodd"/><path d="m-.5-.5h17v11h-17z" stroke="#ff6b6b"/><path d="m-.5-.5h17v11h-17z" stroke="#fff"/></g><path d="m51.5 36.5h16v8h-16z" stroke="#ff6b6b" stroke-linecap="square"/><path d="m51.5 44.5h16v8h-16z" stroke="#ff6b6b" stroke-linecap="square"/><g transform="translate(35 25)"><path d="m17 0h15v10h-15z" fill="#ff6b6b" fill-rule="evenodd"/><path d="m16.5-.5h16v11h-16z" stroke="#ff6b6b"/><path d="m16.5-.5h16v11h-16z" stroke="#fff"/></g><path d="m67.5 36.5h16v8h-16z" stroke="#ff6b6b" stroke-linecap="square"/><path d="m67.5 44.5h16v8h-16z" stroke="#ff6b6b" stroke-linecap="square"/><g transform="translate(35 25)"><path d="m33 0h15v10h-15z" fill="#ff6b6b" fill-rule="evenodd"/><path d="m32.5-.5h16v11h-16z" stroke="#ff6b6b"/><path d="m32.5-.5h16v11h-16z" stroke="#fff"/></g><path d="m83.5 36.5h16v8h-16z" stroke="#ff6b6b" stroke-linecap="square"/><path d="m83.5 44.5h16v8h-16z" stroke="#ff6b6b" stroke-linecap="square"/><g transform="translate(35 25)"><path d="m49 0h15v10h-15z" fill="#ff6b6b" fill-rule="evenodd"/><path d="m48.5-.5h16v11h-16z" stroke="#ff6b6b"/><path d="m48.5-.5h16v11h-16z" stroke="#fff"/></g><g stroke="#ff6b6b" stroke-linecap="square"><path d="m99.5 36.5h16v8h-16z"/><path d="m99.5 44.5h16v8h-16z"/><path d="m35.5 52.5h16v8h-16z"/><path d="m51.5 52.5h16v8h-16z"/><path d="m67.5 52.5h16v8h-16z"/><path d="m83.5 52.5h16v8h-16z"/><path d="m99.5 52.5h16v8h-16z"/><path d="m35.5 68.5h16v8h-16z"/><path d="m51.5 68.5h16v8h-16z"/><path d="m67.5 68.5h16v8h-16z"/><path d="m83.5 68.5h16v8h-16z"/><path d="m99.5 68.5h16v8h-16z"/><path d="m35.5 60.5h16v8h-16z"/><path d="m51.5 60.5h16v8h-16z"/><path d="m67.5 60.5h16v8h-16z"/><path d="m83.5 60.5h16v8h-16z"/><path d="m99.5 60.5h16v8h-16z"/></g><g transform="translate(35 25)"><path d="m65 0h16v10h-16z" fill="#ff6b6b" fill-rule="evenodd"/><path d="m64.5-.5h17v11h-17z" stroke="#ff6b6b"/><path d="m64.5-.5h17v11h-17z" stroke="#fff"/></g></g></svg>