<svg height="100" viewBox="0 0 150 100" width="150" xmlns="http://www.w3.org/2000/svg"><path d="m23.4 32h3.192v-.944h-2.04v-4.768h-1.152zm4.632-2.152c0 .2186678.0053333.4213324.016.608s.0359998.346666.076.48.0999996.237333.18.312.186666.112.32.112c.2240011 0 .3786662-.1173322.464-.352s.128-.6213306.128-1.16-.0426662-.9253322-.128-1.16-.2399989-.352-.464-.352c-.133334 0-.2399996.037333-.32.112s-.1399998.178666-.18.312-.0653333.2933324-.076.48-.016.3893322-.016.608zm-1.104 0c0-.3680018.029333-.6933319.088-.976s.154666-.5186657.288-.708.3079989-.3333328.524-.432.4813318-.148.796-.148c.3306683-.0053334.6053322.0386662.824.132s.3919994.235999.52.428.2186664.4293319.272.712.08.6133314.08.992c0 .3680018-.029333.6933319-.088.976s-.154666.5186657-.288.708-.3079989.3293329-.524.42-.4813318.136-.796.136c-.3306683.0053334-.6053322-.0359996-.824-.124s-.3919994-.2266657-.52-.416-.2186664-.4266652-.272-.712-.08-.6146648-.08-.988zm3.984-2.152v4.304h1.104v-2.584c0-.1440007.0239998-.2653328.072-.364s.1119996-.1786664.192-.24.1679995-.1053332.264-.132.1919995-.04.288-.04c.058667 0 .1159997.0013333.172.004s.113333.0066666.172.012v-1.056c-.0320002-.0053334-.0653332-.0093333-.1-.012s-.0679998-.004-.1-.004c-.2293345 0-.4239992.062666-.584.188s-.2959994.291999-.408.5h-.016v-.576zm4.736 1.664c-.0053334-.1653342-.0159999-.310666-.032-.436s-.0439998-.2319996-.084-.32-.0959996-.1546664-.168-.2-.1639994-.068-.276-.068-.2039996.0253331-.276.076-.1293331.1173329-.172.2-.0733332.1746662-.092.276-.028.2026662-.028.304v.168zm-1.128.656v.344c0 .1280006.0093332.2519994.028.372s.0493331.2266662.092.32.0986663.1679997.168.224.1546662.084.256.084c.1866676 0 .3226662-.066666.408-.2s.1439998-.3359986.176-.608h.992c-.0213334.5013358-.1546654.8826654-.4 1.144s-.6319974.392-1.16.392c-.400002 0-.7119989-.066666-.936-.2s-.3893328-.3093322-.496-.528-.1719999-.4639986-.196-.736-.036-.5439986-.036-.816c0-.2880014.0199998-.565332.06-.832s.1199994-.503999.24-.712.2919989-.3733327.516-.496.5226648-.184.896-.184c.3200016 0 .5826656.0519995.788.156s.3666661.2506657.484.44.1973331.4186653.24.688.064.5693317.064.9v.248zm2.76-2.32v4.304h1.104v-2.832c0-.2560013.0519995-.4426661.156-.56s.2439991-.176.42-.176c.1546674 0 .265333.0479995.332.144s.1.2346658.1.416v3.008h1.104v-2.832c0-.2560013.0519995-.4426661.156-.56s.2439991-.176.42-.176c.1546674 0 .265333.0479995.332.144s.1.2346658.1.416v3.008h1.104v-3.128c0-.4160021-.0866658-.7346656-.26-.956s-.4439982-.332-.812-.332c-.2613346 0-.4866657.0573328-.676.172s-.3266662.2866655-.412.516h-.016c-.058667-.2240011-.1746658-.3946661-.348-.512s-.3879987-.176-.644-.176c-.2400012 0-.4466658.0426662-.62.128s-.3293326.2266657-.468.424h-.016v-.44zm8.024-1.472v.944h1.104v-.944zm0 1.472v4.304h1.104v-4.304zm1.88 0h1.056v.456h.016c.1226673-.2026677.2599992-.3479996.412-.436s.3399989-.132.564-.132c.4533356 0 .7866656.1773316 1 .532s.32.931996.32 1.732-.1066656 1.3733316-.32 1.72-.5466644.52-1 .52c-.208001 0-.3853326-.0386663-.532-.116s-.2786661-.2013325-.396-.372h-.016v1.784h-1.104zm1.104 2.152c0 .4693357.0359996.8226655.108 1.06s.2306654.356.476.356c.2400012 0 .3959996-.1186655.468-.356s.108-.5906643.108-1.06-.0359996-.8226655-.108-1.06-.2279988-.356-.468-.356c-.2453346 0-.4039996.1186655-.476.356s-.108.5906643-.108 1.06zm3.704.744h-.992v.152c0 .208001.0239998.3959992.072.564s.1319994.3106661.252.428.2826656.205333.488.264.4626651.088.772.088c.2346678 0 .4493324-.0239998.644-.072s.362666-.1279994.504-.24.2519996-.2519992.332-.42.12-.3666655.12-.596c0-.325335-.0719993-.5826657-.216-.772s-.3893316-.3426661-.736-.46l-.664-.224c-.1866676-.058667-.313333-.1306662-.38-.216s-.1-.1813328-.1-.288c0-.1546674.0519995-.2706663.156-.348s.2253326-.116.364-.116c.1813342 0 .3079996.0519995.38.156s.108.2679989.108.492h.992v-.176c0-.3893353-.1199988-.6906656-.36-.904s-.6106642-.32-1.112-.32c-.2826681 0-.523999.0346663-.724.104s-.3639994.1626661-.492.28-.221333.2546659-.28.412-.088.3239991-.088.5c0 .3040015.0773326.5533324.232.748s.3839985.3453328.688.452l.776.28c.1066672.0426669.1999996.0999996.28.172s.12.1773326.12.316c0 .1706675-.0506662.2986662-.152.384s-.2373325.128-.408.128c-.1866676 0-.3293328-.0573328-.428-.172s-.148-.2653324-.148-.452zm4.952.904v.504h1.056v-4.304h-1.104v2.856c0 .474669-.1946647.712-.584.712-.1653342 0-.285333-.0439996-.36-.132s-.112-.2439989-.112-.468v-2.968h-1.104v3.192c0 .4320022.0946657.7399991.284.924s.4599982.276.812.276c.2400012 0 .4533324-.0453329.64-.136s.3386661-.2426656.456-.456zm1.792-3.8v4.304h1.104v-2.832c0-.2560013.0519995-.4426661.156-.56s.2439991-.176.42-.176c.1546674 0 .265333.0479995.332.144s.1.2346658.1.416v3.008h1.104v-2.832c0-.2560013.0519995-.4426661.156-.56s.2439991-.176.42-.176c.1546674 0 .265333.0479995.332.144s.1.2346658.1.416v3.008h1.104v-3.128c0-.4160021-.0866658-.7346656-.26-.956s-.4439982-.332-.812-.332c-.2613346 0-.4866657.0573328-.676.172s-.3266662.2866655-.412.516h-.016c-.058667-.2240011-.1746658-.3946661-.348-.512s-.3879987-.176-.644-.176c-.2400012 0-.4466658.0426662-.62.128s-.3293326.2266657-.468.424h-.016v-.44zm10.192 3.848h-.016c-.1226673.2026677-.2599992.3439996-.412.424s-.3399989.12-.564.12c-.4533356 0-.7866656-.1733316-1-.52s-.32-.919996-.32-1.72.1066656-1.3773316.32-1.732.5466644-.532 1-.532c.208001 0 .3853326.0426662.532.128s.2786661.2133325.396.384h.016v-1.808h1.104v5.712h-1.056zm-1.208-1.696c0 .4693357.0359996.8226655.108 1.06s.2279988.356.468.356c.2453346 0 .4039996-.1186655.476-.356s.108-.5906643.108-1.06-.0359996-.8226655-.108-1.06-.2306654-.356-.476-.356c-.2400012 0-.3959996.1186655-.468.356s-.108.5906643-.108 1.06zm3.96 0c0 .2186678.0053333.4213324.016.608s.0359998.346666.076.48.0999996.237333.18.312.186666.112.32.112c.2240011 0 .3786662-.1173322.464-.352s.128-.6213306.128-1.16-.0426662-.9253322-.128-1.16-.2399989-.352-.464-.352c-.133334 0-.2399996.037333-.32.112s-.1399998.178666-.18.312-.0653333.2933324-.076.48-.016.3893322-.016.608zm-1.104 0c0-.3680018.029333-.6933319.088-.976s.154666-.5186657.288-.708.3079989-.3333328.524-.432.4813318-.148.796-.148c.3306683-.0053334.6053322.0386662.824.132s.3919994.235999.52.428.2186664.4293319.272.712.08.6133314.08.992c0 .3680018-.029333.6933319-.088.976s-.154666.5186657-.288.708-.3079989.3293329-.524.42-.4813318.136-.796.136c-.3306683.0053334-.6053322-.0359996-.824-.124s-.3919994-.2266657-.52-.416-.2186664-.4266652-.272-.712-.08-.6146648-.08-.988zm4.024-3.56v5.712h1.104v-5.712zm2.84 3.56c0 .2186678.0053333.4213324.016.608s.0359998.346666.076.48.0999996.237333.18.312.186666.112.32.112c.2240011 0 .3786662-.1173322.464-.352s.128-.6213306.128-1.16-.0426662-.9253322-.128-1.16-.2399989-.352-.464-.352c-.133334 0-.2399996.037333-.32.112s-.1399998.178666-.18.312-.0653333.2933324-.076.48-.016.3893322-.016.608zm-1.104 0c0-.3680018.029333-.6933319.088-.976s.154666-.5186657.288-.708.3079989-.3333328.524-.432.4813318-.148.796-.148c.3306683-.0053334.6053322.0386662.824.132s.3919994.235999.52.428.2186664.4293319.272.712.08.6133314.08.992c0 .3680018-.029333.6933319-.088.976s-.154666.5186657-.288.708-.3079989.3293329-.524.42-.4813318.136-.796.136c-.3306683.0053334-.6053322-.0359996-.824-.124s-.3919994-.2266657-.52-.416-.2186664-.4266652-.272-.712-.08-.6146648-.08-.988zm3.984-2.152v4.304h1.104v-2.584c0-.1440007.0239998-.2653328.072-.364s.1119996-.1786664.192-.24.1679995-.1053332.264-.132.1919995-.04.288-.04c.058667 0 .1159997.0013333.172.004s.113333.0066666.172.012v-1.056c-.0320002-.0053334-.0653332-.0093333-.1-.012s-.0679998-.004-.1-.004c-.2293345 0-.4239992.062666-.584.188s-.2959994.291999-.408.5h-.016v-.576zm5.392 2.896h-.992v.152c0 .208001.0239998.3959992.072.564s.1319994.3106661.252.428.2826656.205333.488.264.4626651.088.772.088c.2346678 0 .4493324-.0239998.644-.072s.362666-.1279994.504-.24.2519996-.2519992.332-.42.12-.3666655.12-.596c0-.325335-.0719993-.5826657-.216-.772s-.3893316-.3426661-.736-.46l-.664-.224c-.1866676-.058667-.313333-.1306662-.38-.216s-.1-.1813328-.1-.288c0-.1546674.0519995-.2706663.156-.348s.2253326-.116.364-.116c.1813342 0 .3079996.0519995.38.156s.108.2679989.108.492h.992v-.176c0-.3893353-.1199988-.6906656-.36-.904s-.6106642-.32-1.112-.32c-.2826681 0-.523999.0346663-.724.104s-.3639994.1626661-.492.28-.221333.2546659-.28.412-.088.3239991-.088.5c0 .3040015.0773326.5533324.232.748s.3839985.3453328.688.452l.776.28c.1066672.0426669.1999996.0999996.28.172s.12.1773326.12.316c0 .1706675-.0506662.2986662-.152.384s-.2373325.128-.408.128c-.1866676 0-.3293328-.0573328-.428-.172s-.148-.2653324-.148-.452zm2.784-4.368v.944h1.104v-.944zm0 1.472v4.304h1.104v-4.304zm2.12-1.232v1.232h-.56v.752h.56v2.464c0 .2186678.0133332.3999993.04.544s.0759996.2599996.148.348.1759993.1466665.312.176.3106656.044.524.044c.1280006 0 .2493328-.004.364-.012s.2333327-.012.356-.012v-.768c-.0373335.0053334-.0773331.0093333-.12.012s-.0853331.004-.128.004c-.1600008 0-.2653331-.0359996-.316-.108s-.076-.1933325-.076-.364v-2.328h.64v-.752h-.64v-1.232zm6.056 3.384c-.074667.058667-.1546662.1053332-.24.14s-.1626663.0599999-.232.076c-.2240011.0480002-.3839995.1279994-.48.24s-.144.263999-.144.456c0 .1653342.0319997.3066661.096.424s.1706659.176.32.176c.074667 0 .1519996-.0119999.232-.036s.153333-.0626664.22-.116.1213331-.1226662.164-.208.064-.1866661.064-.304zm-2.016-.832v-.104c0-.2506679.0399996-.4599992.12-.628s.1879993-.3039995.324-.408.2959991-.1786664.48-.224.379999-.068.588-.068c.3306683 0 .5973323.0319997.8.096s.3599994.1546661.472.272.1879998.2573325.228.42.06.339999.06.532v2.264c0 .2026677.0093332.3599994.028.472s.0546664.2319994.108.36h-1.056c-.0373335-.0693337-.0653332-.1426663-.084-.22s-.0359999-.153333-.052-.228h-.016c-.1280006.2240011-.2759992.369333-.444.436s-.385332.1-.652.1c-.192001 0-.354666-.033333-.488-.1s-.2399996-.1586661-.32-.276-.1386665-.2493326-.176-.396-.056-.2919993-.056-.436c0-.2026677.0213331-.3773326.064-.524s.1079996-.2719995.196-.376.1999993-.1906663.336-.26.299999-.1306664.492-.184l.624-.168c.1653342-.0426669.2799997-.101333.344-.176s.096-.1839993.096-.328c0-.1653342-.0386663-.2946662-.116-.388s-.2093324-.14-.396-.14c-.1706675 0-.2986662.0506662-.384.152s-.128.2373325-.128.408v.12zm3.856-1.32v4.304h1.104v-2.832c0-.2560013.0519995-.4426661.156-.56s.243999-.176.42-.176c.154667 0 .265333.0479995.332.144s.1.2346658.1.416v3.008h1.104v-2.832c0-.2560013.051999-.4426661.156-.56s.243999-.176.42-.176c.154667 0 .265333.0479995.332.144s.1.2346658.1.416v3.008h1.104v-3.128c0-.4160021-.086666-.7346656-.26-.956s-.443998-.332-.812-.332c-.261335 0-.486666.0573328-.676.172s-.326666.2866655-.412.516h-.016c-.058667-.2240011-.174666-.3946661-.348-.512s-.387999-.176-.644-.176c-.240001 0-.446666.0426662-.62.128-.1733342.0853338-.3293326.2266657-.468.424h-.016v-.44zm8.136 1.664c-.005333-.1653342-.016-.310666-.032-.436s-.044-.2319996-.084-.32-.096-.1546664-.168-.2-.163999-.068-.276-.068-.204.0253331-.276.076-.129333.1173329-.172.2-.073333.1746662-.092.276-.028.2026662-.028.304v.168zm-1.128.656v.344c0 .1280006.009333.2519994.028.372s.049333.2266662.092.32.098666.1679997.168.224.154666.084.256.084c.186668 0 .322666-.066666.408-.2s.144-.3359986.176-.608h.992c-.021333.5013358-.154665.8826654-.4 1.144s-.631997.392-1.16.392c-.400002 0-.711999-.066666-.936-.2s-.389333-.3093322-.496-.528-.172-.4639986-.196-.736-.036-.5439986-.036-.816c0-.2880014.02-.565332.06-.832s.119999-.503999.24-.712.291999-.3733327.516-.496.522665-.184.896-.184c.320002 0 .582666.0519995.788.156s.366666.2506657.484.44.197333.4186653.24.688.064.5693317.064.9v.248zm3-3.552v1.232h-.56v.752h.56v2.464c0 .2186678.013333.3999993.04.544s.076.2599996.148.348.175999.1466665.312.176.310666.044.524.044c.128001 0 .249333-.004.364-.012s.233333-.012.356-.012v-.768c-.037334.0053334-.077333.0093333-.12.012s-.085333.004-.128.004c-.160001 0-.265333-.0359996-.316-.108s-.076-.1933325-.076-.364v-2.328h.64v-.752h-.64v-1.232zm3.248 4.288h-1.056v1.248h.416v.104c0 .1493341-.034666.2853327-.104.408s-.173333.1973332-.312.224v.56c.213334-.0213334.387999-.0733329.524-.156s.244-.1893327.324-.32.134667-.2853324.164-.464.044-.3666657.044-.564zm-86.328 8.496h1.056c0-.5120026-.129332-.9173318-.388-1.216s-.6439974-.448-1.156-.448c-.2560013 0-.4906656.0346663-.704.104s-.3973326.1906658-.552.364-.2746662.4053319-.36.696-.128.6573311-.128 1.1c0 .4320022.0346663.7933319.104 1.084s.1719993.5226658.308.696.3066656.293333.512.36.4466653.1.724.1c.5866696 0 1.0066654-.1479985 1.26-.444s.38-.7266638.38-1.292h-1.056c0 .3520018-.0426662.6079992-.128.768s-.2213324.24-.408.24c-.1226673 0-.2226663-.0279997-.3-.084s-.1373331-.1453327-.18-.268-.0719999-.2786657-.088-.468-.024-.417332-.024-.684c0-.2506679.0079999-.4679991.024-.652s.0453331-.3359994.088-.456.1066662-.2106664.192-.272.194666-.092.328-.092c.1066672 0 .1919997.0253331.256.076s.1133332.1173329.148.2.0586666.1746662.072.276.02.2053328.02.312zm2.592.6c0 .2186678.0053333.4213324.016.608s.0359998.346666.076.48.0999996.237333.18.312.186666.112.32.112c.2240011 0 .3786662-.1173322.464-.352s.128-.6213306.128-1.16-.0426662-.9253322-.128-1.16-.2399989-.352-.464-.352c-.133334 0-.2399996.037333-.32.112s-.1399998.178666-.18.312-.0653333.2933324-.076.48-.016.3893322-.016.608zm-1.104 0c0-.3680018.029333-.6933319.088-.976s.154666-.5186657.288-.708.3079989-.3333328.524-.432.4813318-.148.796-.148c.3306683-.0053334.6053322.0386662.824.132s.3919994.235999.52.428.2186664.4293319.272.712.08.6133314.08.992c0 .3680018-.029333.6933319-.088.976s-.154666.5186657-.288.708-.3079989.3293329-.524.42-.4813318.136-.796.136c-.3306683.0053334-.6053322-.0359996-.824-.124s-.3919994-.2266657-.52-.416-.2186664-.4266652-.272-.712-.08-.6146648-.08-.988zm3.984-2.152v4.304h1.104v-2.856c0-.474669.1946647-.712.584-.712.1653342 0 .285333.0439996.36.132s.112.2439989.112.468v2.968h1.104v-3.192c0-.4320022-.0946657-.743999-.284-.936s-.4599982-.288-.812-.288c-.2400012 0-.4533324.0493328-.64.148s-.3386661.2546656-.456.468h-.016v-.504zm4.808 2.896h-.992v.152c0 .208001.0239998.3959992.072.564s.1319994.3106661.252.428.2826656.205333.488.264.4626651.088.772.088c.2346678 0 .4493324-.0239998.644-.072s.362666-.1279994.504-.24.2519996-.2519992.332-.42.12-.3666655.12-.596c0-.325335-.0719993-.5826657-.216-.772s-.3893316-.3426661-.736-.46l-.664-.224c-.1866676-.058667-.313333-.1306662-.38-.216s-.1-.1813328-.1-.288c0-.1546674.0519995-.2706663.156-.348s.2253326-.116.364-.116c.1813342 0 .3079996.0519995.38.156s.108.2679989.108.492h.992v-.176c0-.3893353-.1199988-.6906656-.36-.904s-.6106642-.32-1.112-.32c-.2826681 0-.523999.0346663-.724.104s-.3639994.1626661-.492.28-.221333.2546659-.28.412-.088.3239991-.088.5c0 .3040015.0773326.5533324.232.748s.3839985.3453328.688.452l.776.28c.1066672.0426669.1999996.0999996.28.172s.12.1773326.12.316c0 .1706675-.0506662.2986662-.152.384s-.2373325.128-.408.128c-.1866676 0-.3293328-.0573328-.428-.172s-.148-.2653324-.148-.452zm4.816-1.232c-.0053334-.1653342-.0159999-.310666-.032-.436s-.0439998-.2319996-.084-.32-.0959996-.1546664-.168-.2-.1639994-.068-.276-.068-.2039996.0253331-.276.076-.1293331.1173329-.172.2-.0733332.1746662-.092.276-.028.2026662-.028.304v.168zm-1.128.656v.344c0 .1280006.0093332.2519994.028.372s.0493331.2266662.092.32.0986663.1679997.168.224.1546662.084.256.084c.1866676 0 .3226662-.066666.408-.2s.1439998-.3359986.176-.608h.992c-.0213334.5013358-.1546654.8826654-.4 1.144s-.6319974.392-1.16.392c-.400002 0-.7119989-.066666-.936-.2s-.3893328-.3093322-.496-.528-.1719999-.4639986-.196-.736-.036-.5439986-.036-.816c0-.2880014.0199998-.565332.06-.832s.1199994-.503999.24-.712.2919989-.3733327.516-.496.5226648-.184.896-.184c.3200016 0 .5826656.0519995.788.156s.3666661.2506657.484.44.1973331.4186653.24.688.064.5693317.064.9v.248zm4.832-.768h1.056c0-.5120026-.129332-.9173318-.388-1.216s-.6439974-.448-1.156-.448c-.2560013 0-.4906656.0346663-.704.104s-.3973326.1906658-.552.364-.2746662.4053319-.36.696-.128.6573311-.128 1.1c0 .4320022.0346663.7933319.104 1.084s.1719993.5226658.308.696.3066656.293333.512.36.4466653.1.724.1c.5866696 0 1.0066654-.1479985 1.26-.444s.38-.7266638.38-1.292h-1.056c0 .3520018-.0426662.6079992-.128.768s-.2213324.24-.408.24c-.1226673 0-.2226663-.0279997-.3-.084s-.1373331-.1453327-.18-.268-.0719999-.2786657-.088-.468-.024-.417332-.024-.684c0-.2506679.0079999-.4679991.024-.652s.0453331-.3359994.088-.456.1066662-.2106664.192-.272.194666-.092.328-.092c.1066672 0 .1919997.0253331.256.076s.1133332.1173329.148.2.0586666.1746662.072.276.02.2053328.02.312zm1.872-2.784v1.232h-.56v.752h.56v2.464c0 .2186678.0133332.3999993.04.544s.0759996.2599996.148.348.1759993.1466665.312.176.3106656.044.524.044c.1280006 0 .2493328-.004.364-.012s.2333327-.012.356-.012v-.768c-.0373335.0053334-.0773331.0093333-.12.012s-.0853331.004-.128.004c-.1600008 0-.2653331-.0359996-.316-.108s-.076-.1933325-.076-.364v-2.328h.64v-.752h-.64v-1.232zm4.2 2.896c-.0053334-.1653342-.0159999-.310666-.032-.436s-.0439998-.2319996-.084-.32-.0959996-.1546664-.168-.2-.1639994-.068-.276-.068-.2039996.0253331-.276.076-.1293331.1173329-.172.2-.0733332.1746662-.092.276-.028.2026662-.028.304v.168zm-1.128.656v.344c0 .1280006.0093332.2519994.028.372s.0493331.2266662.092.32.0986663.1679997.168.224.1546662.084.256.084c.1866676 0 .3226662-.066666.408-.2s.1439998-.3359986.176-.608h.992c-.0213334.5013358-.1546654.8826654-.4 1.144s-.6319974.392-1.16.392c-.400002 0-.7119989-.066666-.936-.2s-.3893328-.3093322-.496-.528-.1719999-.4639986-.196-.736-.036-.5439986-.036-.816c0-.2880014.0199998-.565332.06-.832s.1199994-.503999.24-.712.2919989-.3733327.516-.496.5226648-.184.896-.184c.3200016 0 .5826656.0519995.788.156s.3666661.2506657.484.44.1973331.4186653.24.688.064.5693317.064.9v.248zm3-3.552v1.232h-.56v.752h.56v2.464c0 .2186678.0133332.3999993.04.544s.0759996.2599996.148.348.1759993.1466665.312.176.3106656.044.524.044c.1280006 0 .2493328-.004.364-.012s.2333327-.012.356-.012v-.768c-.0373335.0053334-.0773331.0093333-.12.012s-.0853331.004-.128.004c-.1600008 0-.2653331-.0359996-.316-.108s-.076-.1933325-.076-.364v-2.328h.64v-.752h-.64v-1.232zm4.336 5.032v.504h1.056v-4.304h-1.104v2.856c0 .474669-.1946647.712-.584.712-.1653342 0-.285333-.0439996-.36-.132s-.112-.2439989-.112-.468v-2.968h-1.104v3.192c0 .4320022.0946657.7399991.284.924s.4599982.276.812.276c.2400012 0 .4533324-.0453329.64-.136s.3386661-.2426656.456-.456zm1.792-3.8v4.304h1.104v-2.584c0-.1440007.0239998-.2653328.072-.364s.1119996-.1786664.192-.24.1679995-.1053332.264-.132.1919995-.04.288-.04c.058667 0 .1159997.0013333.172.004s.113333.0066666.172.012v-1.056c-.0320002-.0053334-.0653332-.0093333-.1-.012s-.0679998-.004-.1-.004c-.2293345 0-.4239992.062666-.584.188s-.2959994.291999-.408.5h-.016v-.576zm6.592 2.152c-.074667.058667-.1546662.1053332-.24.14s-.1626663.0599999-.232.076c-.2240011.0480002-.3839995.1279994-.48.24s-.144.263999-.144.456c0 .1653342.0319997.3066661.096.424s.1706659.176.32.176c.074667 0 .1519996-.0119999.232-.036s.153333-.0626664.22-.116.1213331-.1226662.164-.208.064-.1866661.064-.304zm-2.016-.832v-.104c0-.2506679.0399996-.4599992.12-.628s.1879993-.3039995.324-.408.2959991-.1786664.48-.224.379999-.068.588-.068c.3306683 0 .5973323.0319997.8.096s.3599994.1546661.472.272.1879998.2573325.228.42.06.339999.06.532v2.264c0 .2026677.0093332.3599994.028.472s.0546664.2319994.108.36h-1.056c-.0373335-.0693337-.0653332-.1426663-.084-.22s-.0359999-.153333-.052-.228h-.016c-.1280006.2240011-.2759992.369333-.444.436s-.385332.1-.652.1c-.192001 0-.354666-.033333-.488-.1s-.2399996-.1586661-.32-.276-.1386665-.2493326-.176-.396-.056-.2919993-.056-.436c0-.2026677.0213331-.3773326.064-.524s.1079996-.2719995.196-.376.1999993-.1906663.336-.26.299999-.1306664.492-.184l.624-.168c.1653342-.0426669.2799997-.101333.344-.176s.096-.1839993.096-.328c0-.1653342-.0386663-.2946662-.116-.388s-.2093324-.14-.396-.14c-.1706675 0-.2986662.0506662-.384.152s-.128.2373325-.128.408v.12zm6.064 2.528h-.016c-.1226673.2026677-.2599992.3439996-.412.424s-.3399989.12-.564.12c-.4533356 0-.7866656-.1733316-1-.52s-.32-.919996-.32-1.72.1066656-1.3773316.32-1.732.5466644-.532 1-.532c.208001 0 .3853326.0426662.532.128s.2786661.2133325.396.384h.016v-1.808h1.104v5.712h-1.056zm-1.208-1.696c0 .4693357.0359996.8226655.108 1.06s.2279988.356.468.356c.2453346 0 .4039996-.1186655.476-.356s.108-.5906643.108-1.06-.0359996-.8226655-.108-1.06-.2306654-.356-.476-.356c-.2400012 0-.3959996.1186655-.468.356s-.108.5906643-.108 1.06zm3.04-3.624v.944h1.104v-.944zm0 1.472v4.304h1.104v-4.304zm1.88 0h1.056v.456h.016c.1226673-.2026677.2599992-.3479996.412-.436s.3399989-.132.564-.132c.4533356 0 .7866656.1773316 1 .532s.32.931996.32 1.732-.1066656 1.3733316-.32 1.72-.5466644.52-1 .52c-.208001 0-.3853326-.0386663-.532-.116s-.2786661-.2013325-.396-.372h-.016v1.784h-1.104zm1.104 2.152c0 .4693357.0359996.8226655.108 1.06s.2306654.356.476.356c.2400012 0 .3959996-.1186655.468-.356s.108-.5906643.108-1.06-.0359996-.8226655-.108-1.06-.2279988-.356-.468-.356c-.2453346 0-.4039996.1186655-.476.356s-.108.5906643-.108 1.06zm2.936-3.624v.944h1.104v-.944zm0 1.472v4.304h1.104v-4.304zm2.688 2.896h-.992v.152c0 .208001.0239998.3959992.072.564s.1319994.3106661.252.428.2826656.205333.488.264.4626651.088.772.088c.2346678 0 .4493324-.0239998.644-.072s.362666-.1279994.504-.24.2519996-.2519992.332-.42.12-.3666655.12-.596c0-.325335-.0719993-.5826657-.216-.772s-.3893316-.3426661-.736-.46l-.664-.224c-.1866676-.058667-.313333-.1306662-.38-.216s-.1-.1813328-.1-.288c0-.1546674.0519995-.2706663.156-.348s.2253326-.116.364-.116c.1813342 0 .3079996.0519995.38.156s.108.2679989.108.492h.992v-.176c0-.3893353-.1199988-.6906656-.36-.904s-.6106642-.32-1.112-.32c-.2826681 0-.523999.0346663-.724.104s-.3639994.1626661-.492.28-.221333.2546659-.28.412-.088.3239991-.088.5c0 .3040015.0773326.5533324.232.748s.3839985.3453328.688.452l.776.28c.1066672.0426669.1999996.0999996.28.172s.12.1773326.12.316c0 .1706675-.0506662.2986662-.152.384s-.2373325.128-.408.128c-.1866676 0-.3293328-.0573328-.428-.172s-.148-.2653324-.148-.452zm2.784-4.368v.944h1.104v-.944zm0 1.472v4.304h1.104v-4.304zm3.952 1.552h1.056c0-.5120026-.129332-.9173318-.388-1.216s-.6439974-.448-1.156-.448c-.2560013 0-.4906656.0346663-.704.104s-.3973326.1906658-.552.364-.2746662.4053319-.36.696-.128.6573311-.128 1.1c0 .4320022.0346663.7933319.104 1.084s.1719993.5226658.308.696.3066656.293333.512.36.4466653.1.724.1c.5866696 0 1.0066654-.1479985 1.26-.444s.38-.7266638.38-1.292h-1.056c0 .3520018-.0426662.6079992-.128.768s-.2213324.24-.408.24c-.1226673 0-.2226663-.0279997-.3-.084s-.1373331-.1453327-.18-.268-.0719999-.2786657-.088-.468-.024-.417332-.024-.684c0-.2506679.0079999-.4679991.024-.652s.0453331-.3359994.088-.456.1066662-.2106664.192-.272.194666-.092.328-.092c.1066672 0 .1919997.0253331.256.076s.1133332.1173329.148.2.0586666.1746662.072.276.02.2053328.02.312zm1.672-3.024v.944h1.104v-.944zm0 1.472v4.304h1.104v-4.304zm1.88 0v4.304h1.104v-2.856c0-.474669.1946647-.712.584-.712.1653342 0 .285333.0439996.36.132s.112.2439989.112.468v2.968h1.104v-3.192c0-.4320022-.0946657-.743999-.284-.936s-.4599982-.288-.812-.288c-.2400012 0-.4533324.0493328-.64.148s-.3386661.2546656-.456.468h-.016v-.504zm5.016 2.288c0 .1493341.0066666.290666.02.424s.0399998.2519995.08.356.0959996.1866664.168.248.1666661.092.284.092.2146663-.0306664.292-.092.1386664-.1453328.184-.252.0773332-.2359992.096-.388.028-.3186658.028-.5c0-.5226693-.0413329-.8933322-.124-1.112s-.2333322-.328-.452-.328c-.1226673 0-.221333.0266664-.296.08s-.1333331.1399994-.176.26-.0706666.279999-.084.48-.02.4439986-.02.732zm2.208-2.288v4.088c0 .5546694-.137332.9706653-.412 1.248s-.7346634.416-1.38.416c-.4693357 0-.8306654-.099999-1.084-.3s-.38-.4839982-.38-.852h1.056c0 .1386674.0559994.2479996.168.328.0533336.0373335.1106664.0666666.172.088s.1266663.032.196.032c.2240011 0 .3813329-.0719993.472-.216s.136-.3226656.136-.536v-.568h-.016c-.1120006.1600008-.2493325.2879995-.412.384s-.3319991.144-.508.144c-.4373355 0-.7666656-.166665-.988-.5s-.332-.8919961-.332-1.676c0-.2506679.0146665-.5066654.044-.768s.0906662-.4973323.184-.708.2293324-.382666.408-.516.4173318-.2.716-.2c.1546674 0 .3146658.0426662.48.128s.3013328.2399989.408.464h.016v-.48zm4.768 1.664c-.005333-.1653342-.016-.310666-.032-.436s-.044-.2319996-.084-.32-.096-.1546664-.168-.2-.163999-.068-.276-.068-.204.0253331-.276.076-.129333.1173329-.172.2-.073333.1746662-.092.276-.028.2026662-.028.304v.168zm-1.128.656v.344c0 .1280006.009333.2519994.028.372s.049333.2266662.092.32.098666.1679997.168.224.154666.084.256.084c.186668 0 .322666-.066666.408-.2s.144-.3359986.176-.608h.992c-.021333.5013358-.154665.8826654-.4 1.144s-.631997.392-1.16.392c-.400002 0-.711999-.066666-.936-.2-.2240011-.133334-.3893328-.3093322-.496-.528s-.1719999-.4639986-.196-.736-.036-.5439986-.036-.816c0-.2880014.0199998-.565332.06-.832s.1199994-.503999.24-.712.291999-.3733327.516-.496.522665-.184.896-.184c.320002 0 .582666.0519995.788.156s.366666.2506657.484.44.197333.4186653.24.688.064.5693317.064.9v.248zm2.8-3.728v5.712h1.104v-5.712zm1.92-.064v.944h1.104v-.944zm0 1.472v4.304h1.104v-4.304zm2.12-1.232v1.232h-.56v.752h.56v2.464c0 .2186678.013333.3999993.04.544s.076.2599996.148.348.175999.1466665.312.176.310666.044.524.044c.128001 0 .249333-.004.364-.012s.233333-.012.356-.012v-.768c-.037334.0053334-.077333.0093333-.12.012s-.085333.004-.128.004c-.160001 0-.265333-.0359996-.316-.108s-.076-.1933325-.076-.364v-2.328h.64v-.752h-.64v-1.232zm3.248 4.288h-1.056v1.248h.416v.104c0 .1493341-.034666.2853327-.104.408s-.173333.1973332-.312.224v.56c.213334-.0213334.387999-.0733329.524-.156s.244-.1893327.324-.32.134667-.2853324.164-.464.044-.3666657.044-.564zm3.528-.16h-.992v.152c0 .208001.024.3959992.072.564s.131999.3106661.252.428.282666.205333.488.264.462665.088.772.088c.234668 0 .449332-.0239998.644-.072s.362666-.1279994.504-.24.252-.2519992.332-.42.12-.3666655.12-.596c0-.325335-.071999-.5826657-.216-.772s-.389332-.3426661-.736-.46l-.664-.224c-.186668-.058667-.313333-.1306662-.38-.216s-.1-.1813328-.1-.288c0-.1546674.051999-.2706663.156-.348s.225333-.116.364-.116c.181334 0 .308.0519995.38.156s.108.2679989.108.492h.992v-.176c0-.3893353-.119999-.6906656-.36-.904s-.610664-.32-1.112-.32c-.282668 0-.523999.0346663-.724.104s-.363999.1626661-.492.28-.221333.2546659-.28.412-.088.3239991-.088.5c0 .3040015.077333.5533324.232.748s.383998.3453328.688.452l.776.28c.106667.0426669.2.0999996.28.172s.12.1773326.12.316c0 .1706675-.050666.2986662-.152.384s-.237332.128-.408.128c-.186668 0-.329333-.0573328-.428-.172s-.148-.2653324-.148-.452zm4.816-1.232c-.005333-.1653342-.016-.310666-.032-.436s-.044-.2319996-.084-.32-.096-.1546664-.168-.2-.163999-.068-.276-.068-.204.0253331-.276.076-.129333.1173329-.172.2-.073333.1746662-.092.276-.028.2026662-.028.304v.168zm-1.128.656v.344c0 .1280006.009333.2519994.028.372s.049333.2266662.092.32.098666.1679997.168.224.154666.084.256.084c.186668 0 .322666-.066666.408-.2s.144-.3359986.176-.608h.992c-.021333.5013358-.154665.8826654-.4 1.144s-.631997.392-1.16.392c-.400002 0-.711999-.066666-.936-.2s-.389333-.3093322-.496-.528-.172-.4639986-.196-.736-.036-.5439986-.036-.816c0-.2880014.02-.565332.06-.832s.119999-.503999.24-.712.291999-.3733327.516-.496.522665-.184.896-.184c.320002 0 .582666.0519995.788.156s.366666.2506657.484.44.197333.4186653.24.688.064.5693317.064.9v.248zm4.968 1.528h-.016c-.122667.2026677-.259999.3439996-.412.424s-.339999.12-.564.12c-.453336 0-.786666-.1733316-1-.52s-.32-.919996-.32-1.72.106666-1.3773316.32-1.732.546664-.532 1-.532c.208001 0 .385333.0426662.532.128s.278666.2133325.396.384h.016v-1.808h1.104v5.712h-1.056zm-1.208-1.696c0 .4693357.036.8226655.108 1.06s.227999.356.468.356c.245335 0 .404-.1186655.476-.356s.108-.5906643.108-1.06-.036-.8226655-.108-1.06-.230665-.356-.476-.356c-.240001 0-.396.1186655-.468.356s-.108.5906643-.108 1.06zm-96.032 11.696h-.016c-.1226673.2026677-.2599992.3439996-.412.424s-.3399989.12-.564.12c-.4533356 0-.7866656-.1733316-1-.52s-.32-.919996-.32-1.72.1066656-1.3773316.32-1.732.5466644-.532 1-.532c.208001 0 .3853326.0426662.532.128s.2786661.2133325.396.384h.016v-1.808h1.104v5.712h-1.056zm-1.208-1.696c0 .4693357.0359996.8226655.108 1.06s.2279988.356.468.356c.2453346 0 .4039996-.1186655.476-.356s.108-.5906643.108-1.06-.0359996-.8226655-.108-1.06-.2306654-.356-.476-.356c-.2400012 0-.3959996.1186655-.468.356s-.108.5906643-.108 1.06zm3.96 0c0 .2186678.0053333.4213324.016.608s.0359998.346666.076.48.0999996.237333.18.312.186666.112.32.112c.2240011 0 .3786662-.1173322.464-.352s.128-.6213306.128-1.16-.0426662-.9253322-.128-1.16-.2399989-.352-.464-.352c-.133334 0-.2399996.037333-.32.112s-.1399998.178666-.18.312-.0653333.2933324-.076.48-.016.3893322-.016.608zm-1.104 0c0-.3680018.029333-.6933319.088-.976s.154666-.5186657.288-.708.3079989-.3333328.524-.432.4813318-.148.796-.148c.3306683-.0053334.6053322.0386662.824.132s.3919994.235999.52.428.2186664.4293319.272.712.08.6133314.08.992c0 .3680018-.029333.6933319-.088.976s-.154666.5186657-.288.708-.3079989.3293329-.524.42-.4813318.136-.796.136c-.3306683.0053334-.6053322-.0359996-.824-.124s-.3919994-.2266657-.52-.416-.2186664-.4266652-.272-.712-.08-.6146648-.08-.988zm7.976-.488c-.0053334-.1653342-.0159999-.310666-.032-.436s-.0439998-.2319996-.084-.32-.0959996-.1546664-.168-.2-.1639994-.068-.276-.068-.2039996.0253331-.276.076-.1293331.1173329-.172.2-.0733332.1746662-.092.276-.028.2026662-.028.304v.168zm-1.128.656v.344c0 .1280006.0093332.2519994.028.372s.0493331.2266662.092.32.0986663.1679997.168.224.1546662.084.256.084c.1866676 0 .3226662-.066666.408-.2s.1439998-.3359986.176-.608h.992c-.0213334.5013358-.1546654.8826654-.4 1.144s-.6319974.392-1.16.392c-.400002 0-.7119989-.066666-.936-.2s-.3893328-.3093322-.496-.528-.1719999-.4639986-.196-.736-.036-.5439986-.036-.816c0-.2880014.0199998-.565332.06-.832s.1199994-.503999.24-.712.2919989-.3733327.516-.496.5226648-.184.896-.184c.3200016 0 .5826656.0519995.788.156s.3666661.2506657.484.44.1973331.4186653.24.688.064.5693317.064.9v.248zm2.8-3.792v.944h1.104v-.944zm0 1.472v4.304h1.104v-4.304zm4.088 3.8v.504h1.056v-4.304h-1.104v2.856c0 .474669-.1946647.712-.584.712-.1653342 0-.285333-.0439996-.36-.132s-.112-.2439989-.112-.468v-2.968h-1.104v3.192c0 .4320022.0946657.7399991.284.924s.4599982.276.812.276c.2400012 0 .4533324-.0453329.64-.136s.3386661-.2426656.456-.456zm2.6-.904h-.992v.152c0 .208001.0239998.3959992.072.564s.1319994.3106661.252.428.2826656.205333.488.264.4626651.088.772.088c.2346678 0 .4493324-.0239998.644-.072s.362666-.1279994.504-.24.2519996-.2519992.332-.42.12-.3666655.12-.596c0-.325335-.0719993-.5826657-.216-.772s-.3893316-.3426661-.736-.46l-.664-.224c-.1866676-.058667-.313333-.1306662-.38-.216s-.1-.1813328-.1-.288c0-.1546674.0519995-.2706663.156-.348s.2253326-.116.364-.116c.1813342 0 .3079996.0519995.38.156s.108.2679989.108.492h.992v-.176c0-.3893353-.1199988-.6906656-.36-.904s-.6106642-.32-1.112-.32c-.2826681 0-.523999.0346663-.724.104s-.3639994.1626661-.492.28-.221333.2546659-.28.412-.088.3239991-.088.5c0 .3040015.0773326.5533324.232.748s.3839985.3453328.688.452l.776.28c.1066672.0426669.1999996.0999996.28.172s.12.1773326.12.316c0 .1706675-.0506662.2986662-.152.384s-.2373325.128-.408.128c-.1866676 0-.3293328-.0573328-.428-.172s-.148-.2653324-.148-.452zm2.744-2.896v4.304h1.104v-2.832c0-.2560013.0519995-.4426661.156-.56s.2439991-.176.42-.176c.1546674 0 .265333.0479995.332.144s.1.2346658.1.416v3.008h1.104v-2.832c0-.2560013.0519995-.4426661.156-.56s.2439991-.176.42-.176c.1546674 0 .265333.0479995.332.144s.1.2346658.1.416v3.008h1.104v-3.128c0-.4160021-.0866658-.7346656-.26-.956s-.4439982-.332-.812-.332c-.2613346 0-.4866657.0573328-.676.172s-.3266662.2866655-.412.516h-.016c-.058667-.2240011-.1746658-.3946661-.348-.512s-.3879987-.176-.644-.176c-.2400012 0-.4466658.0426662-.62.128s-.3293326.2266657-.468.424h-.016v-.44zm7.024 2.152c0 .2186678.0053333.4213324.016.608s.0359998.346666.076.48.0999996.237333.18.312.186666.112.32.112c.2240011 0 .3786662-.1173322.464-.352s.128-.6213306.128-1.16-.0426662-.9253322-.128-1.16-.2399989-.352-.464-.352c-.133334 0-.2399996.037333-.32.112s-.1399998.178666-.18.312-.0653333.2933324-.076.48-.016.3893322-.016.608zm-1.104 0c0-.3680018.029333-.6933319.088-.976s.154666-.5186657.288-.708.3079989-.3333328.524-.432.4813318-.148.796-.148c.3306683-.0053334.6053322.0386662.824.132s.3919994.235999.52.428.2186664.4293319.272.712.08.6133314.08.992c0 .3680018-.029333.6933319-.088.976s-.154666.5186657-.288.708-.3079989.3293329-.524.42-.4813318.136-.796.136c-.3306683.0053334-.6053322-.0359996-.824-.124s-.3919994-.2266657-.52-.416-.2186664-.4266652-.272-.712-.08-.6146648-.08-.988zm6.192 1.696h-.016c-.1226673.2026677-.2599992.3439996-.412.424s-.3399989.12-.564.12c-.4533356 0-.7866656-.1733316-1-.52s-.32-.919996-.32-1.72.1066656-1.3773316.32-1.732.5466644-.532 1-.532c.208001 0 .3853326.0426662.532.128s.2786661.2133325.396.384h.016v-1.808h1.104v5.712h-1.056zm-1.208-1.696c0 .4693357.0359996.8226655.108 1.06s.2279988.356.468.356c.2453346 0 .4039996-.1186655.476-.356s.108-.5906643.108-1.06-.0359996-.8226655-.108-1.06-.2306654-.356-.476-.356c-.2400012 0-.3959996.1186655-.468.356s-.108.5906643-.108 1.06zm5.16-3.384v1.232h-.56v.752h.56v2.464c0 .2186678.0133332.3999993.04.544s.0759996.2599996.148.348.1759993.1466665.312.176.3106656.044.524.044c.1280006 0 .2493328-.004.364-.012s.2333327-.012.356-.012v-.768c-.0373335.0053334-.0773331.0093333-.12.012s-.0853331.004-.128.004c-.1600008 0-.2653331-.0359996-.316-.108s-.076-.1933325-.076-.364v-2.328h.64v-.752h-.64v-1.232zm4.2 2.896c-.0053334-.1653342-.0159999-.310666-.032-.436s-.0439998-.2319996-.084-.32-.0959996-.1546664-.168-.2-.1639994-.068-.276-.068-.2039996.0253331-.276.076-.1293331.1173329-.172.2-.0733332.1746662-.092.276-.028.2026662-.028.304v.168zm-1.128.656v.344c0 .1280006.0093332.2519994.028.372s.0493331.2266662.092.32.0986663.1679997.168.224.1546662.084.256.084c.1866676 0 .3226662-.066666.408-.2s.1439998-.3359986.176-.608h.992c-.0213334.5013358-.1546654.8826654-.4 1.144s-.6319974.392-1.16.392c-.400002 0-.7119989-.066666-.936-.2s-.3893328-.3093322-.496-.528-.1719999-.4639986-.196-.736-.036-.5439986-.036-.816c0-.2880014.0199998-.565332.06-.832s.1199994-.503999.24-.712.2919989-.3733327.516-.496.5226648-.184.896-.184c.3200016 0 .5826656.0519995.788.156s.3666661.2506657.484.44.1973331.4186653.24.688.064.5693317.064.9v.248zm2.76-2.32v4.304h1.104v-2.832c0-.2560013.0519995-.4426661.156-.56s.2439991-.176.42-.176c.1546674 0 .265333.0479995.332.144s.1.2346658.1.416v3.008h1.104v-2.832c0-.2560013.0519995-.4426661.156-.56s.2439991-.176.42-.176c.1546674 0 .265333.0479995.332.144s.1.2346658.1.416v3.008h1.104v-3.128c0-.4160021-.0866658-.7346656-.26-.956s-.4439982-.332-.812-.332c-.2613346 0-.4866657.0573328-.676.172s-.3266662.2866655-.412.516h-.016c-.058667-.2240011-.1746658-.3946661-.348-.512s-.3879987-.176-.644-.176c-.2400012 0-.4466658.0426662-.62.128s-.3293326.2266657-.468.424h-.016v-.44zm6.064 0h1.056v.456h.016c.1226673-.2026677.2599992-.3479996.412-.436s.3399989-.132.564-.132c.4533356 0 .7866656.1773316 1 .532s.32.931996.32 1.732-.1066656 1.3733316-.32 1.72-.5466644.52-1 .52c-.208001 0-.3853326-.0386663-.532-.116s-.2786661-.2013325-.396-.372h-.016v1.784h-1.104zm1.104 2.152c0 .4693357.0359996.8226655.108 1.06s.2306654.356.476.356c.2400012 0 .3959996-.1186655.468-.356s.108-.5906643.108-1.06-.0359996-.8226655-.108-1.06-.2279988-.356-.468-.356c-.2453346 0-.4039996.1186655-.476.356s-.108.5906643-.108 1.06zm3.856 0c0 .2186678.0053333.4213324.016.608s.0359998.346666.076.48.0999996.237333.18.312.186666.112.32.112c.2240011 0 .3786662-.1173322.464-.352s.128-.6213306.128-1.16-.0426662-.9253322-.128-1.16-.2399989-.352-.464-.352c-.133334 0-.2399996.037333-.32.112s-.1399998.178666-.18.312-.0653333.2933324-.076.48-.016.3893322-.016.608zm-1.104 0c0-.3680018.029333-.6933319.088-.976s.154666-.5186657.288-.708.3079989-.3333328.524-.432.4813318-.148.796-.148c.3306683-.0053334.6053322.0386662.824.132s.3919994.235999.52.428.2186664.4293319.272.712.08.6133314.08.992c0 .3680018-.029333.6933319-.088.976s-.154666.5186657-.288.708-.3079989.3293329-.524.42-.4813318.136-.796.136c-.3306683.0053334-.6053322-.0359996-.824-.124s-.3919994-.2266657-.52-.416-.2186664-.4266652-.272-.712-.08-.6146648-.08-.988zm3.984-2.152v4.304h1.104v-2.584c0-.1440007.0239998-.2653328.072-.364s.1119996-.1786664.192-.24.1679995-.1053332.264-.132.1919995-.04.288-.04c.058667 0 .1159997.0013333.172.004s.113333.0066666.172.012v-1.056c-.0320002-.0053334-.0653332-.0093333-.1-.012s-.0679998-.004-.1-.004c-.2293345 0-.4239992.062666-.584.188s-.2959994.291999-.408.5h-.016v-.576zm4.624-1.472v.944h1.104v-.944zm0 1.472v4.304h1.104v-4.304zm1.88 0v4.304h1.104v-2.856c0-.474669.1946647-.712.584-.712.1653342 0 .285333.0439996.36.132s.112.2439989.112.468v2.968h1.104v-3.192c0-.4320022-.0946657-.743999-.284-.936s-.4599982-.288-.812-.288c-.2400012 0-.4533324.0493328-.64.148s-.3386661.2546656-.456.468h-.016v-.504zm6.072 1.552h1.056c0-.5120026-.129332-.9173318-.388-1.216s-.6439974-.448-1.156-.448c-.2560013 0-.4906656.0346663-.704.104s-.3973326.1906658-.552.364-.2746662.4053319-.36.696-.128.6573311-.128 1.1c0 .4320022.0346663.7933319.104 1.084s.1719993.5226658.308.696.3066656.293333.512.36.4466653.1.724.1c.5866696 0 1.0066654-.1479985 1.26-.444s.38-.7266638.38-1.292h-1.056c0 .3520018-.0426662.6079992-.128.768s-.2213324.24-.408.24c-.1226673 0-.2226663-.0279997-.3-.084s-.1373331-.1453327-.18-.268-.0719999-.2786657-.088-.468-.024-.417332-.024-.684c0-.2506679.0079999-.4679991.024-.652s.0453331-.3359994.088-.456.1066662-.2106664.192-.272.194666-.092.328-.092c.1066672 0 .1919997.0253331.256.076s.1133332.1173329.148.2.0586666.1746662.072.276.02.2053328.02.312zm1.672-3.024v.944h1.104v-.944zm0 1.472v4.304h1.104v-4.304zm4.088 3.848h-.016c-.122667.2026677-.259999.3439996-.412.424-.1520008.0800004-.3399989.12-.564.12-.4533356 0-.7866656-.1733316-1-.52s-.32-.919996-.32-1.72.1066656-1.3773316.32-1.732.5466644-.532 1-.532c.208001 0 .3853326.0426662.532.128.146667.0853338.278666.2133325.396.384h.016v-1.808h1.104v5.712h-1.056zm-1.208-1.696c0 .4693357.0359996.8226655.108 1.06s.2279988.356.468.356c.245335 0 .404-.1186655.476-.356s.108-.5906643.108-1.06-.036-.8226655-.108-1.06-.230665-.356-.476-.356c-.2400012 0-.3959996.1186655-.468.356s-.108.5906643-.108 1.06zm3.04-3.624v.944h1.104v-.944zm0 1.472v4.304h1.104v-4.304zm4.088 3.848h-.016c-.122667.2026677-.259999.3439996-.412.424s-.339999.12-.564.12c-.453336 0-.786666-.1733316-1-.52s-.32-.919996-.32-1.72.106666-1.3773316.32-1.732.546664-.532 1-.532c.208001 0 .385333.0426662.532.128s.278666.2133325.396.384h.016v-1.808h1.104v5.712h-1.056zm-1.208-1.696c0 .4693357.036.8226655.108 1.06s.227999.356.468.356c.245335 0 .404-.1186655.476-.356s.108-.5906643.108-1.06-.036-.8226655-.108-1.06-.230665-.356-.476-.356c-.240001 0-.396.1186655-.468.356s-.108.5906643-.108 1.06zm5.208 1.648v.504h1.056v-4.304h-1.104v2.856c0 .474669-.194665.712-.584.712-.165334 0-.285333-.0439996-.36-.132s-.112-.2439989-.112-.468v-2.968h-1.104v3.192c0 .4320022.094666.7399991.284.924s.459998.276.812.276c.240001 0 .453332-.0453329.64-.136s.338666-.2426656.456-.456zm1.792-3.8v4.304h1.104v-2.856c0-.474669.194665-.712.584-.712.165334 0 .285333.0439996.36.132s.112.2439989.112.468v2.968h1.104v-3.192c0-.4320022-.094666-.743999-.284-.936s-.459998-.288-.812-.288c-.240001 0-.453332.0493328-.64.148s-.338666.2546656-.456.468h-.016v-.504zm4.24-1.232v1.232h-.56v.752h.56v2.464c0 .2186678.013333.3999993.04.544s.076.2599996.148.348.175999.1466665.312.176.310666.044.524.044c.128001 0 .249333-.004.364-.012s.233333-.012.356-.012v-.768c-.037334.0053334-.077333.0093333-.12.012s-.085333.004-.128.004c-.160001 0-.265333-.0359996-.316-.108s-.076-.1933325-.076-.364v-2.328h.64v-.752h-.64v-1.232zm6.256 5.032v.504h1.056v-4.304h-1.104v2.856c0 .474669-.194665.712-.584.712-.165334 0-.285333-.0439996-.36-.132s-.112-.2439989-.112-.468v-2.968h-1.104v3.192c0 .4320022.094666.7399991.284.924s.459998.276.812.276c.240001 0 .453332-.0453329.64-.136s.338666-.2426656.456-.456zm2.032-5.032v1.232h-.56v.752h.56v2.464c0 .2186678.013333.3999993.04.544s.076.2599996.148.348.175999.1466665.312.176.310666.044.524.044c.128001 0 .249333-.004.364-.012s.233333-.012.356-.012v-.768c-.037334.0053334-.077333.0093333-.12.012s-.085333.004-.128.004c-.160001 0-.265333-.0359996-.316-.108s-.076-.1933325-.076-.364v-2.328h.64v-.752h-.64v-1.232zm-101.272 9.824v5.712h1.104v-5.712zm3.888 3.56c-.074667.058667-.1546662.1053332-.24.14s-.1626663.0599999-.232.076c-.2240011.0480002-.3839995.1279994-.48.24s-.144.263999-.144.456c0 .1653342.0319997.3066661.096.424s.1706659.176.32.176c.074667 0 .1519996-.0119999.232-.036s.153333-.0626664.22-.116.1213331-.1226662.164-.208.064-.1866661.064-.304zm-2.016-.832v-.104c0-.2506679.0399996-.4599992.12-.628s.1879993-.3039995.324-.408.2959991-.1786664.48-.224.379999-.068.588-.068c.3306683 0 .5973323.0319997.8.096s.3599994.1546661.472.272.1879998.2573325.228.42.06.339999.06.532v2.264c0 .2026677.0093332.3599994.028.472s.0546664.2319994.108.36h-1.056c-.0373335-.0693337-.0653332-.1426663-.084-.22s-.0359999-.153333-.052-.228h-.016c-.1280006.2240011-.2759992.369333-.444.436s-.385332.1-.652.1c-.192001 0-.354666-.033333-.488-.1s-.2399996-.1586661-.32-.276-.1386665-.2493326-.176-.396-.056-.2919993-.056-.436c0-.2026677.0213331-.3773326.064-.524s.1079996-.2719995.196-.376.1999993-.1906663.336-.26.299999-.1306664.492-.184l.624-.168c.1653342-.0426669.2799997-.101333.344-.176s.096-.1839993.096-.328c0-.1653342-.0386663-.2946662-.116-.388s-.2093324-.14-.396-.14c-.1706675 0-.2986662.0506662-.384.152s-.128.2373325-.128.408v.12zm3.856-2.728h1.104v1.808h.016c.1173339-.1706675.2493326-.2986662.396-.384s.323999-.128.532-.128c.4533356 0 .7866656.1773316 1 .532s.32.931996.32 1.732-.1066656 1.3733316-.32 1.72-.5466644.52-1 .52c-.2240011 0-.4119992-.0399996-.564-.12s-.2893327-.2213323-.412-.424h-.016v.456h-1.056zm1.104 3.56c0 .4693357.0359996.8226655.108 1.06s.2306654.356.476.356c.2400012 0 .3959996-.1186655.468-.356s.108-.5906643.108-1.06-.0359996-.8226655-.108-1.06-.2279988-.356-.468-.356c-.2453346 0-.4039996.1186655-.476.356s-.108.5906643-.108 1.06zm3.856 0c0 .2186678.0053333.4213324.016.608s.0359998.346666.076.48.0999996.237333.18.312.186666.112.32.112c.2240011 0 .3786662-.1173322.464-.352s.128-.6213306.128-1.16-.0426662-.9253322-.128-1.16-.2399989-.352-.464-.352c-.133334 0-.2399996.037333-.32.112s-.1399998.178666-.18.312-.0653333.2933324-.076.48-.016.3893322-.016.608zm-1.104 0c0-.3680018.029333-.6933319.088-.976s.154666-.5186657.288-.708.3079989-.3333328.524-.432.4813318-.148.796-.148c.3306683-.0053334.6053322.0386662.824.132s.3919994.235999.52.428.2186664.4293319.272.712.08.6133314.08.992c0 .3680018-.029333.6933319-.088.976s-.154666.5186657-.288.708-.3079989.3293329-.524.42-.4813318.136-.796.136c-.3306683.0053334-.6053322-.0359996-.824-.124s-.3919994-.2266657-.52-.416-.2186664-.4266652-.272-.712-.08-.6146648-.08-.988zm3.984-2.152v4.304h1.104v-2.584c0-.1440007.0239998-.2653328.072-.364s.1119996-.1786664.192-.24.1679995-.1053332.264-.132.1919995-.04.288-.04c.058667 0 .1159997.0013333.172.004s.113333.0066666.172.012v-1.056c-.0320002-.0053334-.0653332-.0093333-.1-.012s-.0679998-.004-.1-.004c-.2293345 0-.4239992.062666-.584.188s-.2959994.291999-.408.5h-.016v-.576zm4.736 1.664c-.0053334-.1653342-.0159999-.310666-.032-.436s-.0439998-.2319996-.084-.32-.0959996-.1546664-.168-.2-.1639994-.068-.276-.068-.2039996.0253331-.276.076-.1293331.1173329-.172.2-.0733332.1746662-.092.276-.028.2026662-.028.304v.168zm-1.128.656v.344c0 .1280006.0093332.2519994.028.372s.0493331.2266662.092.32.0986663.1679997.168.224.1546662.084.256.084c.1866676 0 .3226662-.066666.408-.2s.1439998-.3359986.176-.608h.992c-.0213334.5013358-.1546654.8826654-.4 1.144s-.6319974.392-1.16.392c-.400002 0-.7119989-.066666-.936-.2s-.3893328-.3093322-.496-.528-.1719999-.4639986-.196-.736-.036-.5439986-.036-.816c0-.2880014.0199998-.565332.06-.832s.1199994-.503999.24-.712.2919989-.3733327.516-.496.5226648-.184.896-.184c.3200016 0 .5826656.0519995.788.156s.3666661.2506657.484.44.1973331.4186653.24.688.064.5693317.064.9v.248zm6.752-.656c-.0053334-.1653342-.0159999-.310666-.032-.436s-.0439998-.2319996-.084-.32-.0959996-.1546664-.168-.2-.1639994-.068-.276-.068-.2039996.0253331-.276.076-.1293331.1173329-.172.2-.0733332.1746662-.092.276-.028.2026662-.028.304v.168zm-1.128.656v.344c0 .1280006.0093332.2519994.028.372s.0493331.2266662.092.32.0986663.1679997.168.224.1546662.084.256.084c.1866676 0 .3226662-.066666.408-.2s.1439998-.3359986.176-.608h.992c-.0213334.5013358-.1546654.8826654-.4 1.144s-.6319974.392-1.16.392c-.400002 0-.7119989-.066666-.936-.2s-.3893328-.3093322-.496-.528-.1719999-.4639986-.196-.736-.036-.5439986-.036-.816c0-.2880014.0199998-.565332.06-.832s.1199994-.503999.24-.712.2919989-.3733327.516-.496.5226648-.184.896-.184c.3200016 0 .5826656.0519995.788.156s.3666661.2506657.484.44.1973331.4186653.24.688.064.5693317.064.9v.248zm3-3.552v1.232h-.56v.752h.56v2.464c0 .2186678.0133332.3999993.04.544s.0759996.2599996.148.348.1759993.1466665.312.176.3106656.044.524.044c.1280006 0 .2493328-.004.364-.012s.2333327-.012.356-.012v-.768c-.0373335.0053334-.0773331.0093333-.12.012s-.0853331.004-.128.004c-.1600008 0-.2653331-.0359996-.316-.108s-.076-.1933325-.076-.364v-2.328h.64v-.752h-.64v-1.232zm6.256 5.08h-.016c-.1226673.2026677-.2599992.3439996-.412.424s-.3399989.12-.564.12c-.4533356 0-.7866656-.1733316-1-.52s-.32-.919996-.32-1.72.1066656-1.3773316.32-1.732.5466644-.532 1-.532c.208001 0 .3853326.0426662.532.128s.2786661.2133325.396.384h.016v-1.808h1.104v5.712h-1.056zm-1.208-1.696c0 .4693357.0359996.8226655.108 1.06s.2279988.356.468.356c.2453346 0 .4039996-.1186655.476-.356s.108-.5906643.108-1.06-.0359996-.8226655-.108-1.06-.2306654-.356-.476-.356c-.2400012 0-.3959996.1186655-.468.356s-.108.5906643-.108 1.06zm3.96 0c0 .2186678.0053333.4213324.016.608s.0359998.346666.076.48.0999996.237333.18.312.186666.112.32.112c.2240011 0 .3786662-.1173322.464-.352s.128-.6213306.128-1.16-.0426662-.9253322-.128-1.16-.2399989-.352-.464-.352c-.133334 0-.2399996.037333-.32.112s-.1399998.178666-.18.312-.0653333.2933324-.076.48-.016.3893322-.016.608zm-1.104 0c0-.3680018.029333-.6933319.088-.976s.154666-.5186657.288-.708.3079989-.3333328.524-.432.4813318-.148.796-.148c.3306683-.0053334.6053322.0386662.824.132s.3919994.235999.52.428.2186664.4293319.272.712.08.6133314.08.992c0 .3680018-.029333.6933319-.088.976s-.154666.5186657-.288.708-.3079989.3293329-.524.42-.4813318.136-.796.136c-.3306683.0053334-.6053322-.0359996-.824-.124s-.3919994-.2266657-.52-.416-.2186664-.4266652-.272-.712-.08-.6146648-.08-.988zm4.024-3.56v5.712h1.104v-5.712zm2.84 3.56c0 .2186678.0053333.4213324.016.608s.0359998.346666.076.48.0999996.237333.18.312.186666.112.32.112c.2240011 0 .3786662-.1173322.464-.352s.128-.6213306.128-1.16-.0426662-.9253322-.128-1.16-.2399989-.352-.464-.352c-.133334 0-.2399996.037333-.32.112s-.1399998.178666-.18.312-.0653333.2933324-.076.48-.016.3893322-.016.608zm-1.104 0c0-.3680018.029333-.6933319.088-.976s.154666-.5186657.288-.708.3079989-.3333328.524-.432.4813318-.148.796-.148c.3306683-.0053334.6053322.0386662.824.132s.3919994.235999.52.428.2186664.4293319.272.712.08.6133314.08.992c0 .3680018-.029333.6933319-.088.976s-.154666.5186657-.288.708-.3079989.3293329-.524.42-.4813318.136-.796.136c-.3306683.0053334-.6053322-.0359996-.824-.124s-.3919994-.2266657-.52-.416-.2186664-.4266652-.272-.712-.08-.6146648-.08-.988zm3.984-2.152v4.304h1.104v-2.584c0-.1440007.0239998-.2653328.072-.364s.1119996-.1786664.192-.24.1679995-.1053332.264-.132.1919995-.04.288-.04c.058667 0 .1159997.0013333.172.004s.113333.0066666.172.012v-1.056c-.0320002-.0053334-.0653332-.0093333-.1-.012s-.0679998-.004-.1-.004c-.2293345 0-.4239992.062666-.584.188s-.2959994.291999-.408.5h-.016v-.576zm4.736 1.664c-.0053334-.1653342-.0159999-.310666-.032-.436s-.0439998-.2319996-.084-.32-.0959996-.1546664-.168-.2-.1639994-.068-.276-.068-.2039996.0253331-.276.076-.1293331.1173329-.172.2-.0733332.1746662-.092.276-.028.2026662-.028.304v.168zm-1.128.656v.344c0 .1280006.0093332.2519994.028.372s.0493331.2266662.092.32.0986663.1679997.168.224.1546662.084.256.084c.1866676 0 .3226662-.066666.408-.2s.1439998-.3359986.176-.608h.992c-.0213334.5013358-.1546654.8826654-.4 1.144s-.6319974.392-1.16.392c-.400002 0-.7119989-.066666-.936-.2s-.3893328-.3093322-.496-.528-.1719999-.4639986-.196-.736-.036-.5439986-.036-.816c0-.2880014.0199998-.565332.06-.832s.1199994-.503999.24-.712.2919989-.3733327.516-.496.5226648-.184.896-.184c.3200016 0 .5826656.0519995.788.156s.3666661.2506657.484.44.1973331.4186653.24.688.064.5693317.064.9v.248zm4.68-2.32v4.304h1.104v-2.832c0-.2560013.0519995-.4426661.156-.56s.2439991-.176.42-.176c.1546674 0 .265333.0479995.332.144s.1.2346658.1.416v3.008h1.104v-2.832c0-.2560013.0519995-.4426661.156-.56s.2439991-.176.42-.176c.1546674 0 .265333.0479995.332.144s.1.2346658.1.416v3.008h1.104v-3.128c0-.4160021-.0866658-.7346656-.26-.956s-.4439982-.332-.812-.332c-.2613346 0-.4866657.0573328-.676.172s-.3266662.2866655-.412.516h-.016c-.058667-.2240011-.1746658-.3946661-.348-.512s-.3879987-.176-.644-.176c-.2400012 0-.4466658.0426662-.62.128s-.3293326.2266657-.468.424h-.016v-.44zm8.072 2.152c-.074667.058667-.1546662.1053332-.24.14s-.1626663.0599999-.232.076c-.2240011.0480002-.3839995.1279994-.48.24s-.144.263999-.144.456c0 .1653342.0319997.3066661.096.424s.1706659.176.32.176c.074667 0 .1519996-.0119999.232-.036s.153333-.0626664.22-.116.1213331-.1226662.164-.208.064-.1866661.064-.304zm-2.016-.832v-.104c0-.2506679.0399996-.4599992.12-.628s.1879993-.3039995.324-.408.2959991-.1786664.48-.224.379999-.068.588-.068c.3306683 0 .5973323.0319997.8.096s.3599994.1546661.472.272.1879998.2573325.228.42.06.339999.06.532v2.264c0 .2026677.0093332.3599994.028.472s.0546664.2319994.108.36h-1.056c-.0373335-.0693337-.0653332-.1426663-.084-.22s-.0359999-.153333-.052-.228h-.016c-.1280006.2240011-.2759992.369333-.444.436s-.385332.1-.652.1c-.192001 0-.354666-.033333-.488-.1s-.2399996-.1586661-.32-.276-.1386665-.2493326-.176-.396-.056-.2919993-.056-.436c0-.2026677.0213331-.3773326.064-.524s.1079996-.2719995.196-.376.1999993-.1906663.336-.26.299999-.1306664.492-.184l.624-.168c.1653342-.0426669.2799997-.101333.344-.176s.096-.1839993.096-.328c0-.1653342-.0386663-.2946662-.116-.388s-.2093324-.14-.396-.14c-.1706675 0-.2986662.0506662-.384.152s-.128.2373325-.128.408v.12zm4.872.968c0 .1493341.0066666.290666.02.424s.0399998.2519995.08.356.0959996.1866664.168.248.1666661.092.284.092.2146663-.0306664.292-.092.1386664-.1453328.184-.252.0773332-.2359992.096-.388.028-.3186658.028-.5c0-.5226693-.0413329-.8933322-.124-1.112s-.2333322-.328-.452-.328c-.1226673 0-.221333.0266664-.296.08s-.1333331.1399994-.176.26-.0706666.279999-.084.48-.02.4439986-.02.732zm2.208-2.288v4.088c0 .5546694-.137332.9706653-.412 1.248s-.7346634.416-1.38.416c-.4693357 0-.8306654-.099999-1.084-.3s-.38-.4839982-.38-.852h1.056c0 .1386674.0559994.2479996.168.328.0533336.0373335.1106664.0666666.172.088s.1266663.032.196.032c.2240011 0 .3813329-.0719993.472-.216s.136-.3226656.136-.536v-.568h-.016c-.1120006.1600008-.2493325.2879995-.412.384s-.3319991.144-.508.144c-.4373355 0-.7666656-.166665-.988-.5s-.332-.8919961-.332-1.676c0-.2506679.0146665-.5066654.044-.768s.0906662-.4973323.184-.708.2293324-.382666.408-.516.4173318-.2.716-.2c.1546674 0 .3146658.0426662.48.128s.3013328.2399989.408.464h.016v-.48zm.776 0v4.304h1.104v-2.856c0-.474669.1946647-.712.584-.712.1653342 0 .285333.0439996.36.132s.112.2439989.112.468v2.968h1.104v-3.192c0-.4320022-.0946657-.743999-.284-.936s-.4599982-.288-.812-.288c-.2400012 0-.4533324.0493328-.64.148s-.3386661.2546656-.456.468h-.016v-.504zm6.008 2.152c-.074667.058667-.1546662.1053332-.24.14s-.1626663.0599999-.232.076c-.2240011.0480002-.3839995.1279994-.48.24s-.144.263999-.144.456c0 .1653342.0319997.3066661.096.424s.1706659.176.32.176c.074667 0 .1519996-.0119999.232-.036s.153333-.0626664.22-.116.1213331-.1226662.164-.208.064-.1866661.064-.304zm-2.016-.832v-.104c0-.2506679.0399996-.4599992.12-.628s.1879993-.3039995.324-.408.2959991-.1786664.48-.224.379999-.068.588-.068c.3306683 0 .5973323.0319997.8.096s.3599994.1546661.472.272.1879998.2573325.228.42.06.339999.06.532v2.264c0 .2026677.0093332.3599994.028.472s.0546664.2319994.108.36h-1.056c-.0373335-.0693337-.0653332-.1426663-.084-.22s-.0359999-.153333-.052-.228h-.016c-.1280006.2240011-.2759992.369333-.444.436s-.385332.1-.652.1c-.192001 0-.354666-.033333-.488-.1s-.2399996-.1586661-.32-.276-.1386665-.2493326-.176-.396-.056-.2919993-.056-.436c0-.2026677.0213331-.3773326.064-.524s.1079996-.2719995.196-.376.1999993-.1906663.336-.26.299999-.1306664.492-.184l.624-.168c.1653342-.0426669.2799997-.101333.344-.176s.096-.1839993.096-.328c0-.1653342-.0386663-.2946662-.116-.388s-.2093324-.14-.396-.14c-.1706675 0-.2986662.0506662-.384.152s-.128.2373325-.128.408v.12zm7.784.832c-.074667.058667-.154666.1053332-.24.14s-.162666.0599999-.232.076c-.224001.0480002-.3839995.1279994-.48.24s-.144.263999-.144.456c0 .1653342.0319997.3066661.096.424s.170666.176.32.176c.074667 0 .152-.0119999.232-.036s.153333-.0626664.22-.116.121333-.1226662.164-.208.064-.1866661.064-.304zm-2.016-.832v-.104c0-.2506679.0399996-.4599992.12-.628s.1879993-.3039995.324-.408.2959991-.1786664.48-.224.379999-.068.588-.068c.330668 0 .597332.0319997.8.096s.359999.1546661.472.272.188.2573325.228.42.06.339999.06.532v2.264c0 .2026677.009333.3599994.028.472s.054666.2319994.108.36h-1.056c-.037334-.0693337-.065333-.1426663-.084-.22s-.036-.153333-.052-.228h-.016c-.128001.2240011-.275999.369333-.444.436s-.385332.1-.652.1c-.192001 0-.354666-.033333-.488-.1s-.2399996-.1586661-.32-.276-.1386665-.2493326-.176-.396-.056-.2919993-.056-.436c0-.2026677.0213331-.3773326.064-.524s.1079996-.2719995.196-.376.1999993-.1906663.336-.26.299999-.1306664.492-.184l.624-.168c.165334-.0426669.28-.101333.344-.176s.096-.1839993.096-.328c0-.1653342-.038666-.2946662-.116-.388s-.209332-.14-.396-.14c-.170668 0-.298666.0506662-.384.152-.0853338.1013338-.128.2373325-.128.408v.12zm3.896-2.728v5.712h1.104v-5.712zm1.92-.064v.944h1.104v-.944zm0 1.472v4.304h1.104v-4.304zm4.04 3.904h-.016c-.117334.1706675-.249333.2946663-.396.372s-.323999.116-.532.116c-.453336 0-.786666-.1733316-1-.52s-.32-.919996-.32-1.72.106666-1.3773316.32-1.732.546664-.532 1-.532c.224001 0 .411999.0439996.564.132s.289333.2333323.412.436h.016v-.456h1.056v5.688h-1.104zm0-1.752c0-.4693357-.036-.8226655-.108-1.06s-.230665-.356-.476-.356c-.240001 0-.396.1186655-.468.356s-.108.5906643-.108 1.06.036.8226655.108 1.06.227999.356.468.356c.245335 0 .404-.1186655.476-.356s.108-.5906643.108-1.06zm4.048 1.648v.504h1.056v-4.304h-1.104v2.856c0 .474669-.194665.712-.584.712-.165334 0-.285333-.0439996-.36-.132s-.112-.2439989-.112-.468v-2.968h-1.104v3.192c0 .4320022.094666.7399991.284.924s.459998.276.812.276c.240001 0 .453332-.0453329.64-.136s.338666-.2426656.456-.456zm3.8-1.648c-.074667.058667-.154666.1053332-.24.14s-.162666.0599999-.232.076c-.224001.0480002-.384.1279994-.48.24s-.144.263999-.144.456c0 .1653342.032.3066661.096.424s.170666.176.32.176c.074667 0 .152-.0119999.232-.036s.153333-.0626664.22-.116.121333-.1226662.164-.208.064-.1866661.064-.304zm-2.016-.832v-.104c0-.2506679.04-.4599992.12-.628s.187999-.3039995.324-.408.295999-.1786664.48-.224.379999-.068.588-.068c.330668 0 .597332.0319997.8.096s.359999.1546661.472.272.188.2573325.228.42.06.339999.06.532v2.264c0 .2026677.009333.3599994.028.472s.054666.2319994.108.36h-1.056c-.037334-.0693337-.065333-.1426663-.084-.22s-.036-.153333-.052-.228h-.016c-.128001.2240011-.275999.369333-.444.436s-.385332.1-.652.1c-.192001 0-.354666-.033333-.488-.1s-.24-.1586661-.32-.276-.138666-.2493326-.176-.396-.056-.2919993-.056-.436c0-.2026677.021333-.3773326.064-.524s.108-.2719995.196-.376.199999-.1906663.336-.26.299999-.1306664.492-.184l.624-.168c.165334-.0426669.28-.101333.344-.176s.096-.1839993.096-.328c0-.1653342-.038666-.2946662-.116-.388s-.209332-.14-.396-.14c-.170668 0-.298666.0506662-.384.152s-.128.2373325-.128.408v.12zm4.976 1.736h-1.056v1.248h1.056zm-95 5.536h-1.152v3.984c0 .3840019.0506662.6959988.152.936s.2373325.4253327.408.556.3653322.2173331.584.26.4453322.064.68.064.4613322-.0239998.68-.072.4133325-.1413326.584-.28.3066662-.3266655.408-.564.152-.5373315.152-.9v-3.984h-1.152v3.984c0 .1440007-.0093332.2759994-.028.396s-.0533331.2239996-.104.312-.1186662.1573331-.204.208-.1973326.076-.336.076c-.133334 0-.2439996-.0253331-.332-.076s-.1573331-.1199996-.208-.208-.0853332-.1919994-.104-.312-.028-.2519993-.028-.396zm3.432.176v1.232h-.56v.752h.56v2.464c0 .2186678.0133332.3999993.04.544s.0759996.2599996.148.348.1759993.1466665.312.176.3106656.044.524.044c.1280006 0 .2493328-.004.364-.012s.2333327-.012.356-.012v-.768c-.0373335.0053334-.0773331.0093333-.12.012s-.0853331.004-.128.004c-.1600008 0-.2653331-.0359996-.316-.108s-.076-.1933325-.076-.364v-2.328h.64v-.752h-.64v-1.232zm6.12 2.896c-.0053334-.1653342-.0159999-.310666-.032-.436s-.0439998-.2319996-.084-.32-.0959996-.1546664-.168-.2-.1639994-.068-.276-.068-.2039996.0253331-.276.076-.1293331.1173329-.172.2-.0733332.1746662-.092.276-.028.2026662-.028.304v.168zm-1.128.656v.344c0 .1280006.0093332.2519994.028.372s.0493331.2266662.092.32.0986663.1679997.168.224.1546662.084.256.084c.1866676 0 .3226662-.066666.408-.2s.1439998-.3359986.176-.608h.992c-.0213334.5013358-.1546654.8826654-.4 1.144s-.6319974.392-1.16.392c-.400002 0-.7119989-.066666-.936-.2s-.3893328-.3093322-.496-.528-.1719999-.4639986-.196-.736-.036-.5439986-.036-.816c0-.2880014.0199998-.565332.06-.832s.1199994-.503999.24-.712.2919989-.3733327.516-.496.5226648-.184.896-.184c.3200016 0 .5826656.0519995.788.156s.3666661.2506657.484.44.1973331.4186653.24.688.064.5693317.064.9v.248zm2.76-2.32v4.304h1.104v-2.856c0-.474669.1946647-.712.584-.712.1653342 0 .285333.0439996.36.132s.112.2439989.112.468v2.968h1.104v-3.192c0-.4320022-.0946657-.743999-.284-.936s-.4599982-.288-.812-.288c-.2400012 0-.4533324.0493328-.64.148s-.3386661.2546656-.456.468h-.016v-.504zm4.04-1.472v.944h1.104v-.944zm0 1.472v4.304h1.104v-4.304zm1.88 0v4.304h1.104v-2.832c0-.2560013.0519995-.4426661.156-.56s.2439991-.176.42-.176c.1546674 0 .265333.0479995.332.144s.1.2346658.1.416v3.008h1.104v-2.832c0-.2560013.0519995-.4426661.156-.56s.2439991-.176.42-.176c.1546674 0 .265333.0479995.332.144s.1.2346658.1.416v3.008h1.104v-3.128c0-.4160021-.0866658-.7346656-.26-.956s-.4439982-.332-.812-.332c-.2613346 0-.4866657.0573328-.676.172s-.3266662.2866655-.412.516h-.016c-.058667-.2240011-.1746658-.3946661-.348-.512s-.3879987-.176-.644-.176c-.2400012 0-.4466658.0426662-.62.128s-.3293326.2266657-.468.424h-.016v-.44zm9.992 2.152c-.074667.058667-.1546662.1053332-.24.14s-.1626663.0599999-.232.076c-.2240011.0480002-.3839995.1279994-.48.24s-.144.263999-.144.456c0 .1653342.0319997.3066661.096.424s.1706659.176.32.176c.074667 0 .1519996-.0119999.232-.036s.153333-.0626664.22-.116.1213331-.1226662.164-.208.064-.1866661.064-.304zm-2.016-.832v-.104c0-.2506679.0399996-.4599992.12-.628s.1879993-.3039995.324-.408.2959991-.1786664.48-.224.379999-.068.588-.068c.3306683 0 .5973323.0319997.8.096s.3599994.1546661.472.272.1879998.2573325.228.42.06.339999.06.532v2.264c0 .2026677.0093332.3599994.028.472s.0546664.2319994.108.36h-1.056c-.0373335-.0693337-.0653332-.1426663-.084-.22s-.0359999-.153333-.052-.228h-.016c-.1280006.2240011-.2759992.369333-.444.436s-.385332.1-.652.1c-.192001 0-.354666-.033333-.488-.1s-.2399996-.1586661-.32-.276-.1386665-.2493326-.176-.396-.056-.2919993-.056-.436c0-.2026677.0213331-.3773326.064-.524s.1079996-.2719995.196-.376.1999993-.1906663.336-.26.299999-.1306664.492-.184l.624-.168c.1653342-.0426669.2799997-.101333.344-.176s.096-.1839993.096-.328c0-.1653342-.0386663-.2946662-.116-.388s-.2093324-.14-.396-.14c-.1706675 0-.2986662.0506662-.384.152s-.128.2373325-.128.408v.12zm6.064 2.528h-.016c-.1226673.2026677-.2599992.3439996-.412.424s-.3399989.12-.564.12c-.4533356 0-.7866656-.1733316-1-.52s-.32-.919996-.32-1.72.1066656-1.3773316.32-1.732.5466644-.532 1-.532c.208001 0 .3853326.0426662.532.128s.2786661.2133325.396.384h.016v-1.808h1.104v5.712h-1.056zm-1.208-1.696c0 .4693357.0359996.8226655.108 1.06s.2279988.356.468.356c.2453346 0 .4039996-.1186655.476-.356s.108-.5906643.108-1.06-.0359996-.8226655-.108-1.06-.2306654-.356-.476-.356c-.2400012 0-.3959996.1186655-.468.356s-.108.5906643-.108 1.06zm4.92-2.152v4.304h1.104v-2.832c0-.2560013.0519995-.4426661.156-.56s.2439991-.176.42-.176c.1546674 0 .265333.0479995.332.144s.1.2346658.1.416v3.008h1.104v-2.832c0-.2560013.0519995-.4426661.156-.56s.2439991-.176.42-.176c.1546674 0 .265333.0479995.332.144s.1.2346658.1.416v3.008h1.104v-3.128c0-.4160021-.0866658-.7346656-.26-.956s-.4439982-.332-.812-.332c-.2613346 0-.4866657.0573328-.676.172s-.3266662.2866655-.412.516h-.016c-.058667-.2240011-.1746658-.3946661-.348-.512s-.3879987-.176-.644-.176c-.2400012 0-.4466658.0426662-.62.128s-.3293326.2266657-.468.424h-.016v-.44zm6.104-1.472v.944h1.104v-.944zm0 1.472v4.304h1.104v-4.304zm1.88 0v4.304h1.104v-2.856c0-.474669.1946647-.712.584-.712.1653342 0 .285333.0439996.36.132s.112.2439989.112.468v2.968h1.104v-3.192c0-.4320022-.0946657-.743999-.284-.936s-.4599982-.288-.812-.288c-.2400012 0-.4533324.0493328-.64.148s-.3386661.2546656-.456.468h-.016v-.504zm4.04-1.472v.944h1.104v-.944zm0 1.472v4.304h1.104v-4.304zm1.88 0v4.304h1.104v-2.832c0-.2560013.0519995-.4426661.156-.56s.2439991-.176.42-.176c.1546674 0 .265333.0479995.332.144s.1.2346658.1.416v3.008h1.104v-2.832c0-.2560013.0519995-.4426661.156-.56s.2439991-.176.42-.176c.1546674 0 .265333.0479995.332.144s.1.2346658.1.416v3.008h1.104v-3.128c0-.4160021-.0866658-.7346656-.26-.956s-.4439982-.332-.812-.332c-.2613346 0-.4866657.0573328-.676.172s-.3266662.2866655-.412.516h-.016c-.058667-.2240011-.1746658-.3946661-.348-.512s-.3879987-.176-.644-.176c-.2400012 0-.4466658.0426662-.62.128s-.3293326.2266657-.468.424h-.016v-.44zm10.024 0-.584 3.08h-.016l-.616-3.08h-1.152l1.112 4.304h1.28l1.08-4.304zm3.584 1.664c-.0053334-.1653342-.0159999-.310666-.032-.436s-.0439998-.2319996-.084-.32-.0959996-.1546664-.168-.2-.1639994-.068-.276-.068-.2039996.0253331-.276.076-.1293331.1173329-.172.2-.0733332.1746662-.092.276-.028.2026662-.028.304v.168zm-1.128.656v.344c0 .1280006.0093332.2519994.028.372s.0493331.2266662.092.32.0986663.1679997.168.224.1546662.084.256.084c.1866676 0 .3226662-.066666.408-.2s.1439998-.3359986.176-.608h.992c-.0213334.5013358-.1546654.8826654-.4 1.144s-.6319974.392-1.16.392c-.400002 0-.7119989-.066666-.936-.2s-.3893328-.3093322-.496-.528-.1719999-.4639986-.196-.736-.036-.5439986-.036-.816c0-.2880014.0199998-.565332.06-.832s.1199994-.503999.24-.712.2919989-.3733327.516-.496.5226648-.184.896-.184c.3200016 0 .5826656.0519995.788.156s.3666661.2506657.484.44.1973331.4186653.24.688.064.5693317.064.9v.248zm2.76-2.32v4.304h1.104v-2.856c0-.474669.1946647-.712.584-.712.1653342 0 .285333.0439996.36.132s.112.2439989.112.468v2.968h1.104v-3.192c0-.4320022-.0946657-.743999-.284-.936s-.4599982-.288-.812-.288c-.2400012 0-.4533324.0493328-.64.148s-.3386661.2546656-.456.468h-.016v-.504zm4.04-1.472v.944h1.104v-.944zm0 1.472v4.304h1.104v-4.304zm3.888 2.152c-.074667.058667-.1546662.1053332-.24.14s-.1626663.0599999-.232.076c-.2240011.0480002-.3839995.1279994-.48.24s-.144.263999-.144.456c0 .1653342.0319997.3066661.096.424s.1706659.176.32.176c.074667 0 .1519996-.0119999.232-.036s.153333-.0626664.22-.116.1213331-.1226662.164-.208.064-.1866661.064-.304zm-2.016-.832v-.104c0-.2506679.0399996-.4599992.12-.628s.1879993-.3039995.324-.408.2959991-.1786664.48-.224.379999-.068.588-.068c.3306683 0 .5973323.0319997.8.096s.3599994.1546661.472.272.1879998.2573325.228.42.06.339999.06.532v2.264c0 .2026677.0093332.3599994.028.472s.0546664.2319994.108.36h-1.056c-.0373335-.0693337-.0653332-.1426663-.084-.22s-.0359999-.153333-.052-.228h-.016c-.1280006.2240011-.2759992.369333-.444.436s-.385332.1-.652.1c-.192001 0-.354666-.033333-.488-.1s-.2399996-.1586661-.32-.276-.1386665-.2493326-.176-.396-.056-.2919993-.056-.436c0-.2026677.0213331-.3773326.064-.524s.1079996-.2719995.196-.376.1999993-.1906663.336-.26.299999-.1306664.492-.184l.624-.168c.1653342-.0426669.2799997-.101333.344-.176s.096-.1839993.096-.328c0-.1653342-.0386663-.2946662-.116-.388s-.2093324-.14-.396-.14c-.1706675 0-.2986662.0506662-.384.152s-.128.2373325-.128.408v.12zm3.856-1.32v4.304h1.104v-2.832c0-.2560013.0519995-.4426661.156-.56s.2439991-.176.42-.176c.154667 0 .265333.0479995.332.144s.1.2346658.1.416v3.008h1.104v-2.832c0-.2560013.051999-.4426661.156-.56s.243999-.176.42-.176c.154667 0 .265333.0479995.332.144s.1.2346658.1.416v3.008h1.104v-3.128c0-.4160021-.086666-.7346656-.26-.956s-.443998-.332-.812-.332c-.261335 0-.486666.0573328-.676.172s-.326666.2866655-.412.516h-.016c-.058667-.2240011-.174666-.3946661-.348-.512s-.387999-.176-.644-.176c-.240001 0-.4466658.0426662-.62.128s-.3293326.2266657-.468.424h-.016v-.44zm7.184 3.056h-1.056v1.248h.416v.104c0 .1493341-.034666.2853327-.104.408s-.173333.1973332-.312.224v.56c.213334-.0213334.387999-.0733329.524-.156s.244-.1893327.324-.32.134667-.2853324.164-.464.044-.3666657.044-.564z" fill="#ff6b6b" fill-rule="evenodd"/></svg>