<svg height="100" viewBox="0 0 150 100" width="150" xmlns="http://www.w3.org/2000/svg"><g fill="none" fill-rule="evenodd"><g transform="translate(33 19)"><path d="m0 0h37v27h-37z" fill="#fff" fill-rule="evenodd"/><path d="m-1-1h39v29h-39z" stroke="#ff6b6b" stroke-width="2"/></g><g transform="translate(36.7 22.6)"><path d="m.18901978 0c-.10439274 0-.18901978.07386803-.18901978.16420864v20.07158266c0 .09069.08491211.1642087.18901978.1642087h29.22196052c.1043926 0 .1890197-.073868.1890197-.1642087v-20.07158266c0-.09068992-.0849122-.16420864-.1890197-.16420864z" fill="#fff"/><g fill="#ff6b6b"><path d="m10.9852306 4.87437139 4.3734331 7.20399071c.0538165.0886476.1700516.1118049.2563236.0539334l3.7099444-2.48864235c.1736512-.11648588.4048938-.07584849.520853.09727281l6.74251 7.50437324c.1140079.1702081.0315767.3081892-.1697248.3081892h-23.71168625c-.20829882 0-.29880076-.1441152-.20043881-.3250221l8.10753936-12.34950067c.0975995-.17950473.2657512-.17836762.3712464-.00459424z"/><path d="m24.1733333 6.16744186c1.0898419 0 1.9733334-.84961774 1.9733334-1.89767442s-.8834915-1.89767442-1.9733334-1.89767442c-1.0898418 0-1.9733333.84961774-1.9733333 1.89767442s.8834915 1.89767442 1.9733333 1.89767442z"/></g></g><g transform="translate(33 55)"><path d="m0 0h37v27h-37z" fill="#fff" fill-rule="evenodd"/><path d="m-1-1h39v29h-39z" stroke="#ff6b6b" stroke-width="2"/></g><g transform="translate(36.7 58.6)"><path d="m.18901978 0c-.10439274 0-.18901978.07386803-.18901978.16420864v20.07158266c0 .09069.08491211.1642087.18901978.1642087h29.22196052c.1043926 0 .1890197-.073868.1890197-.1642087v-20.07158266c0-.09068992-.0849122-.16420864-.1890197-.16420864z" fill="#fff"/><g fill="#ff6b6b"><path d="m10.9852306 4.87437139 4.3734331 7.20399071c.0538165.0886476.1700516.1118049.2563236.0539334l3.7099444-2.48864235c.1736512-.11648588.4048938-.07584849.520853.09727281l6.74251 7.50437324c.1140079.1702081.0315767.3081892-.1697248.3081892h-23.71168625c-.20829882 0-.29880076-.1441152-.20043881-.3250221l8.10753936-12.34950067c.0975995-.17950473.2657512-.17836762.3712464-.00459424z"/><path d="m24.1733333 6.16744186c1.0898419 0 1.9733334-.84961774 1.9733334-1.89767442s-.8834915-1.89767442-1.9733334-1.89767442c-1.0898418 0-1.9733333.84961774-1.9733333 1.89767442s.8834915 1.89767442 1.9733333 1.89767442z"/></g></g><g transform="translate(80 19)"><path d="m0 0h37v27h-37z" fill="#fff" fill-rule="evenodd"/><path d="m-1-1h39v29h-39z" stroke="#ff6b6b" stroke-width="2"/></g><g transform="translate(83.7 22.6)"><path d="m.18901978 0c-.10439274 0-.18901978.07386803-.18901978.16420864v20.07158266c0 .09069.08491211.1642087.18901978.1642087h29.22196052c.1043926 0 .1890197-.073868.1890197-.1642087v-20.07158266c0-.09068992-.0849122-.16420864-.1890197-.16420864z" fill="#fff"/><g fill="#ff6b6b"><path d="m10.9852306 4.87437139 4.3734331 7.20399071c.0538165.0886476.1700516.1118049.2563236.0539334l3.7099444-2.48864235c.1736512-.11648588.4048938-.07584849.520853.09727281l6.74251 7.50437324c.1140079.1702081.0315767.3081892-.1697248.3081892h-23.71168625c-.20829882 0-.29880076-.1441152-.20043881-.3250221l8.10753936-12.34950067c.0975995-.17950473.2657512-.17836762.3712464-.00459424z"/><path d="m24.1733333 6.16744186c1.0898419 0 1.9733334-.84961774 1.9733334-1.89767442s-.8834915-1.89767442-1.9733334-1.89767442c-1.0898418 0-1.9733333.84961774-1.9733333 1.89767442s.8834915 1.89767442 1.9733333 1.89767442z"/></g></g><g transform="translate(80 55)"><path d="m0 0h37v27h-37z" fill="#fff" fill-rule="evenodd"/><path d="m-1-1h39v29h-39z" stroke="#ff6b6b" stroke-width="2"/></g><g transform="translate(83.7 58.6)"><path d="m.18901978 0c-.10439274 0-.18901978.07386803-.18901978.16420864v20.07158266c0 .09069.08491211.1642087.18901978.1642087h29.22196052c.1043926 0 .1890197-.073868.1890197-.1642087v-20.07158266c0-.09068992-.0849122-.16420864-.1890197-.16420864z" fill="#fff"/><g fill="#ff6b6b"><path d="m10.9852306 4.87437139 4.3734331 7.20399071c.0538165.0886476.1700516.1118049.2563236.0539334l3.7099444-2.48864235c.1736512-.11648588.4048938-.07584849.520853.09727281l6.74251 7.50437324c.1140079.1702081.0315767.3081892-.1697248.3081892h-23.71168625c-.20829882 0-.29880076-.1441152-.20043881-.3250221l8.10753936-12.34950067c.0975995-.17950473.2657512-.17836762.3712464-.00459424z"/><path d="m24.1733333 6.16744186c1.0898419 0 1.9733334-.84961774 1.9733334-1.89767442s-.8834915-1.89767442-1.9733334-1.89767442c-1.0898418 0-1.9733333.84961774-1.9733333 1.89767442s.8834915 1.89767442 1.9733333 1.89767442z"/></g></g></g></svg>