<svg enable-background="new 0 0 150 100" viewBox="0 0 150 100" xmlns="http://www.w3.org/2000/svg"><path d="m27 25h97v49h-97z" fill="none" stroke="#ff6b6b" stroke-width="2"/><path d="m56.4 43.7c-.7 0-1.7-.5-1.6-2 0-1.3 2-3 3.5-3 1.2 0 1.9.8 2 2 .2 1.5-1.6 3-3.9 3z" fill="#fe6f6f"/><path d="m59.9 49.2c.6-.5 1.3-1.1 1.9-1.6 2.7-2.3 3.6-2 4.7 1.5 1.6-1.1 2.9-2.4 4.9-2.6 2.2-.3 3.5.7 3.9 3.2 1.3-1.2 2.2-2.2 3.5-2.8 1.3-.5 2.7-.8 3.9 0 1.3.9 1.3 2.3 1.1 3.7-.2 1.5-.6 3-.8 4.5-.1.7-.3 1.7.8 1.8s1-.8 1.1-1.5c.7-5.5 5.3-9.3 10.7-9 1.4.1 2.6.4 3.2 1.7.7 1.4.4 2.8-.5 4.1-1.6 2.4-4.2 3.3-6.7 4.3-.3.1-.6.2-.9.3 1.8 1.2 6.9.7 8.2-.7.4-.5.3-1 .3-1.5.5-4.4 4.2-8.1 8.7-8.4 3.6-.3 6.1 1.9 6.4 5.5.3 4.9-3.9 9.6-8.8 9.8-1.9.1-3.7-.4-4.9-1.9-.7-1-1.3-.8-2.2-.3-2.2 1.2-4.6 1.9-7.1 2.1-1.2.1-2.7.2-3.5-.6-1.8-1.7-3.2-.9-5.1-.1-3.4 1.6-5.3.2-4.8-3.6.2-1.3.5-2.5.7-3.8.1-.7.3-1.6-.5-2-1-.5-1.5.4-2 1-1.3 1.9-2.2 3.9-2.4 6.3-.1.8 1 2.4-.8 2.5-1.7.1-3.2-.6-3.5-2.5-.2-1.2 0-2.4.2-3.6s1.3-3.1-.3-3.6c-1.7-.6-2.1 1.5-2.7 2.7-.8 1.5-.9 3.2-.9 4.9 0 .7.5 1.7-.3 2.1-.9.5-2.2.2-2.7-.6-1.3-1.8-2.3-1.1-3.6-.1-.7.5-1.5.7-2.3.9-2.6.5-4-.8-3.6-3.4.3-1.8.8-3.5 1.2-5.3.1-.6.6-1.5-.2-1.8s-1.3.4-1.7 1.2c-1.4 3-3.3 5.6-5.7 7.8-3 2.8-4.9 2.3-6.1-1.5-.6-2-1.1-4.1-1.8-6.1-.3-.9-.7-2-2.1-1.1-.4.3-.7.1-1-.3s-.1-.7.2-1c.1-.1.2-.2.3-.3 1.6-1.2 2.7-3.6 5-2.8 2.2.7 1.6 3.2 2 4.9.2 1 .4 1.9.7 2.9.2.6.3 1.3 1 1.4s1-.6 1.3-1.1.6-1 .9-1.6c1.1-2.2.8-2.8-1.6-3.3 1-2.7 2.5-3.8 4.8-3.6.7.1 1.5.2 1.8.8.7 1.9 1.5 1.3 2.7.3 2.3-1.9 3.6-1.2 4.3 2.1 0 1.8-.2 3.6-.5 5.4-.1.5-.2 1.1.5 1.4s1.2-.3 1.3-.9c.3-1.5 1.6-3.1-.9-4.1-.7-.7-.7-1.7.3-2.1zm48.6.1c-1.1-.4-2 .4-2.7 1.2-1.3 1.5-2 3.2-1.9 5.2 0 .8.3 1.7 1.2 2s1.6 0 2.3-.6c1.4-1.4 2.1-3.1 2.3-5-.1-1.1 0-2.3-1.2-2.8zm-14.2 1.6c0-1-.5-1.5-1.4-1.1-1.7.7-2.5 2.3-3 4-.2.7.2.8 1.4.7.5 0 3-2.5 3-3.6z" fill="#fe6b6b"/></svg>