<svg enable-background="new 0 0 150 100" viewBox="0 0 150 100" xmlns="http://www.w3.org/2000/svg"><path d="m26.5 25h97v49h-97z" fill="none" stroke="#ff6b6b" stroke-width="2"/><g fill="#ff6b6b"><path d="m51.3 58.2c-.3-.2-.4-.6-.4-1v-9.1c0-.4.1-.7.4-.9s.6-.3 1-.3c.5 0 .8.1 1.1.3s.4.5.4.9v9.1c0 .4-.1.8-.4 1.1s-.6.4-1.1.4c-.4-.1-.8-.2-1-.5zm8.9.1c0 1 0 1.7.4 2.2s1 .8 1.8.8c.6 0 1.3-.2 2-.5s1.3-.9 2-1.6v1.8h3.4v-16.6h-3.4v12.6c-.3.4-.7.7-1 .9-.4.2-.7.3-.9.3-.3 0-.6-.1-.7-.3s-.2-.5-.2-.9v-12.6h-3.4zm-12.8-1.5c0 1.4.4 2.5 1.3 3.4.9.8 2.1 1.3 3.6 1.3s2.8-.4 3.6-1.2c.9-.8 1.3-1.9 1.3-3.3v-8.6c0-1.3-.4-2.3-1.3-3.1-.9-.9-2-1.3-3.4-1.3-1.5 0-2.8.4-3.7 1.1-.9.8-1.4 1.8-1.4 3.1zm-13.1-18.3 4.6 13.6v8.9h3.8v-9.3l4.5-13.2h-3.9l-2.4 9h-.2l-2.5-9z"/><path d="m69.7 38.5h11.4v3.3h-3.8v19.3h-3.8v-19.3h-3.8z"/><path d="m88.8 44.4h3.3v16.6h-3.3v-1.9c-.7.7-1.2 1.2-1.9 1.5s-1.3.6-2 .6c-.8 0-1.3-.2-1.8-.8-.3-.6-.6-1.2-.6-2.2v-13.8h3.5v12.8c0 .4.1.7.2.9s.3.2.7.2c.2 0 .6-.1.9-.3s.8-.6 1-.9z"/><path d="m101 44.2c-.6 0-1 .1-1.5.4-.6.2-1 .7-1.4 1.1v-7.3h-3.3v22.6h3.2v-1.3c.4.6.9.9 1.4 1.1.6.2 1.1.3 1.8.3 1 0 1.8-.3 2.2-1 .6-.7.8-1.5.8-2.8v-9.3c0-1.3-.2-2.4-.9-3.1-.5-.4-1.3-.7-2.3-.7zm-.4 12.9c0 .6 0 .9-.2 1.1s-.4.3-.9.3c-.3 0-.6-.1-.8-.2s-.6-.3-.8-.6v-10.3c.2-.2.4-.4.7-.6s.4-.1.7-.1c.4 0 .8.1 1 .4s.3.7.3 1.3zm10.4-13.1c-1.5 0-2.6.4-3.6 1.3s-1.4 2.1-1.4 3.5v7.5c0 1.7.4 2.9 1.3 3.7.9.9 2 1.3 3.5 1.3 1.7 0 2.9-.4 3.7-1.3.9-.9 1.2-2.2 1.2-3.9v-.8h-3.4v.8c0 1-.1 1.7-.3 1.9-.2.3-.6.4-1.2.4s-.9-.2-1.1-.6c-.2-.3-.3-1-.3-1.9v-2.9h6.4v-4.2c0-1.5-.4-2.8-1.2-3.6-1-.8-2.1-1.2-3.6-1.2zm1.3 6.5h-3v-1.7c0-.7.1-1.2.3-1.5s.7-.4 1.1-.4c.6 0 .9.1 1.1.4s.3.8.3 1.5v1.7z"/></g></svg>